<?xml version="1.0" encoding="UTF-8"?>
<svg xmlns="http://www.w3.org/2000/svg" xmlns:xlink="http://www.w3.org/1999/xlink" width="45pt" height="63pt" viewBox="0 0 45 63" version="1.1">
<g id="surface1">
<path style=" stroke:none;fill-rule:nonzero;fill:rgb(0%,0%,0%);fill-opacity:1;" d="M 32.605469 7.699219 C 32.320312 7.730469 32.171875 7.796875 31.972656 7.949219 C 31.773438 8.117188 31.597656 8.179688 31.457031 8.160156 C 31.390625 8.144531 31.136719 8.125 30.882812 8.117188 C 30.441406 8.097656 30.40625 8.101562 30.28125 8.160156 C 30.101562 8.230469 29.898438 8.367188 29.777344 8.488281 C 29.648438 8.621094 29.507812 8.683594 29.253906 8.726562 C 29.003906 8.765625 28.917969 8.761719 28.707031 8.667969 C 28.527344 8.585938 28.273438 8.578125 28.011719 8.640625 C 27.726562 8.710938 27.558594 8.816406 27.332031 9.039062 C 27.089844 9.277344 27.089844 9.277344 26.992188 9.5625 C 26.882812 9.859375 26.808594 9.996094 26.6875 10.074219 C 26.628906 10.109375 26.515625 10.226562 26.429688 10.339844 C 26.113281 10.765625 26.011719 10.886719 25.921875 10.921875 C 25.863281 10.941406 25.792969 10.996094 25.75 11.039062 C 25.6875 11.101562 25.347656 11.660156 25.347656 11.695312 C 25.347656 11.710938 25.289062 11.753906 25.226562 11.792969 C 25.164062 11.84375 25.0625 11.941406 25.011719 12.011719 C 24.894531 12.179688 24.59375 12.453125 24.460938 12.5 C 24.398438 12.527344 24.234375 12.632812 24.085938 12.738281 C 23.929688 12.835938 23.78125 12.941406 23.746094 12.953125 C 23.710938 12.976562 23.636719 13.023438 23.582031 13.074219 C 23.523438 13.121094 23.398438 13.191406 23.292969 13.234375 C 23.105469 13.296875 22.878906 13.421875 22.730469 13.535156 C 22.617188 13.617188 22.546875 13.773438 22.519531 13.976562 C 22.496094 14.179688 22.484375 14.21875 22.425781 14.21875 C 22.398438 14.21875 22.3125 14.25 22.226562 14.285156 C 22.144531 14.324219 21.992188 14.382812 21.894531 14.410156 C 21.796875 14.445312 21.492188 14.550781 21.214844 14.648438 C 20.9375 14.746094 20.632812 14.847656 20.546875 14.878906 C 20.230469 14.976562 20.003906 15.191406 19.910156 15.5 C 19.832031 15.746094 19.816406 15.914062 19.851562 16.136719 C 19.929688 16.542969 19.902344 16.640625 19.597656 17.148438 C 19.429688 17.4375 19.242188 17.945312 19.195312 18.296875 C 19.179688 18.429688 19.164062 18.871094 19.160156 19.316406 C 19.152344 20.007812 19.144531 20.140625 19.09375 20.40625 C 19.058594 20.574219 19.011719 20.769531 18.972656 20.839844 L 18.917969 20.96875 L 18.796875 20.839844 C 18.734375 20.769531 18.65625 20.660156 18.628906 20.597656 C 18.570312 20.492188 18.570312 20.457031 18.585938 20.203125 C 18.628906 19.644531 18.648438 19.476562 18.699219 19.371094 C 18.742188 19.28125 18.746094 19.21875 18.742188 18.890625 C 18.742188 18.660156 18.71875 18.449219 18.699219 18.359375 C 18.613281 18.042969 18.675781 17.207031 18.804688 16.910156 C 18.824219 16.855469 18.847656 16.792969 18.847656 16.773438 C 18.847656 16.730469 18.988281 16.386719 19.039062 16.316406 C 19.050781 16.296875 19.117188 16.179688 19.171875 16.050781 C 19.230469 15.933594 19.328125 15.746094 19.394531 15.625 C 19.511719 15.410156 19.578125 15.183594 19.648438 14.78125 C 19.667969 14.640625 19.710938 14.410156 19.734375 14.277344 C 19.78125 14.011719 19.769531 13.820312 19.660156 13.550781 C 19.597656 13.382812 19.378906 13.136719 19.1875 13.011719 C 18.96875 12.878906 18.691406 12.886719 18.386719 13.039062 C 18.195312 13.128906 17.890625 13.445312 17.648438 13.78125 C 17.230469 14.375 17.117188 14.464844 16.621094 14.582031 C 16.492188 14.613281 16.300781 14.6875 16.1875 14.746094 C 16.074219 14.808594 15.890625 14.898438 15.785156 14.949219 C 15.621094 15.023438 15.515625 15.113281 14.855469 15.757812 C 14.445312 16.164062 14.042969 16.570312 13.964844 16.667969 C 13.820312 16.855469 13.425781 17.226562 13.304688 17.28125 C 13.246094 17.308594 13.226562 17.304688 13.035156 17.144531 C 12.773438 16.917969 12.636719 16.863281 12.355469 16.847656 C 12.0625 16.828125 11.929688 16.863281 11.601562 17.039062 C 11.320312 17.191406 11.234375 17.269531 11.148438 17.421875 C 11.085938 17.535156 11.015625 17.574219 10.773438 17.640625 C 10.53125 17.695312 10.449219 17.742188 10.261719 17.898438 C 10.148438 17.996094 10.085938 18.078125 10.023438 18.21875 C 9.910156 18.449219 9.84375 18.679688 9.84375 18.863281 C 9.84375 19.03125 9.796875 19.164062 9.703125 19.28125 C 9.667969 19.332031 9.609375 19.421875 9.589844 19.492188 C 9.570312 19.554688 9.527344 19.660156 9.496094 19.730469 C 9.46875 19.792969 9.417969 19.933594 9.398438 20.042969 C 9.34375 20.261719 9.15625 20.730469 9.085938 20.828125 C 9.007812 20.933594 8.964844 21.113281 8.988281 21.246094 C 9 21.308594 9.074219 21.484375 9.15625 21.636719 C 9.347656 21.988281 9.414062 22.253906 9.390625 22.546875 L 9.378906 22.757812 L 9.1875 22.9375 C 9.078125 23.035156 8.945312 23.191406 8.882812 23.265625 C 8.65625 23.566406 8.421875 23.804688 8.320312 23.847656 C 8.199219 23.902344 7.894531 24.21875 7.738281 24.457031 C 7.660156 24.574219 7.625 24.890625 7.660156 25.105469 C 7.726562 25.46875 7.859375 25.699219 8.101562 25.855469 C 8.160156 25.890625 8.265625 25.964844 8.335938 26.023438 C 8.535156 26.175781 8.660156 26.222656 8.964844 26.265625 C 9.304688 26.316406 9.417969 26.371094 9.574219 26.558594 C 9.675781 26.671875 9.703125 26.726562 9.71875 26.832031 C 9.738281 26.957031 9.726562 26.980469 9.609375 27.195312 C 9.539062 27.320312 9.433594 27.484375 9.378906 27.558594 C 9.230469 27.753906 8.875 28.453125 8.824219 28.644531 C 8.746094 28.929688 8.816406 29.609375 8.929688 29.71875 C 8.980469 29.761719 9.007812 29.742188 8.605469 29.9375 C 8.40625 30.042969 8.152344 30.273438 8.007812 30.480469 C 7.96875 30.546875 7.769531 30.769531 7.5625 30.976562 C 7.171875 31.378906 7.074219 31.503906 6.945312 31.742188 C 6.910156 31.816406 6.820312 31.964844 6.746094 32.070312 C 6.550781 32.355469 6.484375 32.46875 6.394531 32.710938 C 6.351562 32.832031 6.265625 33.039062 6.210938 33.171875 C 6.089844 33.445312 6.074219 33.664062 6.152344 33.867188 C 6.171875 33.929688 6.203125 34.035156 6.210938 34.105469 C 6.214844 34.167969 6.230469 34.25 6.25 34.285156 C 6.285156 34.375 6.464844 34.53125 6.578125 34.570312 C 6.664062 34.605469 6.664062 34.605469 6.648438 34.738281 C 6.621094 34.96875 6.550781 35.082031 6.371094 35.203125 C 6.152344 35.363281 5.96875 35.535156 5.847656 35.703125 C 5.785156 35.789062 5.683594 35.894531 5.621094 35.941406 C 5.558594 35.992188 5.386719 36.125 5.246094 36.234375 C 4.949219 36.460938 4.828125 36.59375 4.796875 36.710938 C 4.792969 36.753906 4.75 36.851562 4.714844 36.914062 C 4.621094 37.097656 4.585938 37.292969 4.621094 37.425781 C 4.679688 37.628906 5.066406 37.90625 5.34375 37.941406 C 5.402344 37.949219 5.472656 37.976562 5.492188 38.003906 C 5.542969 38.046875 5.636719 38.382812 5.671875 38.613281 C 5.691406 38.753906 5.777344 38.894531 5.996094 39.152344 C 6.089844 39.25 6.195312 39.382812 6.246094 39.4375 C 6.351562 39.570312 6.515625 39.703125 6.707031 39.808594 C 6.78125 39.851562 6.867188 39.90625 6.910156 39.941406 C 7.109375 40.117188 7.285156 40.136719 7.832031 40.046875 C 8.328125 39.960938 8.476562 39.898438 8.847656 39.589844 C 9.074219 39.402344 9.492188 38.976562 9.738281 38.695312 C 9.808594 38.613281 10.035156 38.425781 10.277344 38.25 C 10.511719 38.089844 10.765625 37.894531 10.835938 37.824219 C 10.988281 37.683594 11.269531 37.523438 11.757812 37.292969 C 12.042969 37.160156 12.105469 37.117188 12.320312 36.914062 C 12.445312 36.789062 12.636719 36.621094 12.730469 36.542969 C 12.972656 36.367188 13.140625 36.179688 13.367188 35.871094 C 13.585938 35.566406 13.644531 35.445312 13.707031 35.132812 C 13.773438 34.832031 13.777344 34.824219 13.886719 34.675781 C 13.933594 34.613281 14.011719 34.472656 14.070312 34.375 C 14.140625 34.230469 14.238281 34.117188 14.515625 33.84375 C 14.765625 33.605469 14.890625 33.453125 14.957031 33.335938 C 15.003906 33.242188 15.105469 33.097656 15.175781 33.011719 C 15.359375 32.789062 15.4375 32.664062 15.53125 32.441406 C 15.570312 32.328125 15.671875 32.140625 15.742188 32.011719 C 15.96875 31.628906 16.003906 31.46875 15.949219 31.054688 C 15.925781 30.921875 15.925781 30.804688 15.933594 30.804688 C 16.054688 30.761719 16.394531 30.414062 16.566406 30.152344 C 16.621094 30.070312 16.707031 29.910156 16.757812 29.789062 C 16.863281 29.53125 17.011719 28.867188 17.082031 28.371094 C 17.125 28.007812 17.132812 27.992188 17.246094 27.832031 C 17.316406 27.734375 17.402344 27.582031 17.445312 27.476562 C 17.492188 27.351562 17.5625 27.253906 17.664062 27.148438 C 17.742188 27.070312 17.863281 26.921875 17.925781 26.824219 C 18.074219 26.601562 18.09375 26.582031 18.25 26.558594 C 18.324219 26.554688 18.449219 26.503906 18.542969 26.460938 C 18.691406 26.386719 18.707031 26.386719 19.082031 26.378906 L 19.476562 26.378906 L 19.546875 26.46875 C 19.667969 26.621094 19.832031 26.761719 19.960938 26.820312 C 20.058594 26.859375 20.136719 26.875 20.34375 26.875 C 20.589844 26.875 20.613281 26.867188 20.84375 26.761719 C 21.066406 26.664062 21.121094 26.652344 21.292969 26.652344 C 21.503906 26.652344 21.511719 26.65625 21.683594 26.886719 C 21.796875 27.042969 21.992188 27.152344 22.164062 27.167969 C 22.269531 27.183594 22.328125 27.167969 22.453125 27.113281 C 22.539062 27.070312 22.660156 27.035156 22.722656 27.035156 C 22.78125 27.027344 22.878906 27.019531 22.9375 27.007812 C 23.027344 26.992188 23.0625 27.007812 23.171875 27.070312 C 23.320312 27.160156 23.488281 27.390625 23.523438 27.539062 C 23.554688 27.644531 23.546875 27.664062 23.453125 27.8125 C 23.367188 27.945312 23.328125 27.980469 23.207031 28.027344 C 23.128906 28.0625 23.007812 28.148438 22.9375 28.210938 C 22.753906 28.378906 22.5625 28.503906 22.339844 28.609375 C 22.234375 28.65625 22.101562 28.742188 22.035156 28.789062 C 21.929688 28.875 21.722656 29 21.484375 29.117188 C 21.433594 29.148438 21.320312 29.1875 21.234375 29.210938 C 21.128906 29.238281 21.03125 29.285156 20.921875 29.378906 C 20.613281 29.621094 20.5 29.691406 20.347656 29.734375 C 20.265625 29.753906 20.15625 29.796875 20.109375 29.824219 C 20.066406 29.851562 19.960938 29.894531 19.867188 29.914062 C 19.710938 29.957031 19.484375 30.082031 19.363281 30.203125 C 19.316406 30.257812 19.285156 30.265625 19.164062 30.25 C 18.953125 30.230469 18.824219 30.28125 18.675781 30.417969 C 18.519531 30.578125 18.257812 31.019531 18.222656 31.203125 C 18.152344 31.566406 18.109375 31.796875 18.101562 31.972656 C 18.089844 32.109375 18.058594 32.222656 17.980469 32.40625 C 17.8125 32.789062 17.691406 33.238281 17.691406 33.488281 C 17.691406 33.671875 17.699219 33.710938 17.769531 33.824219 C 17.804688 33.886719 17.875 33.972656 17.925781 34 C 17.96875 34.035156 18.039062 34.132812 18.089844 34.222656 C 18.179688 34.402344 18.265625 34.496094 18.429688 34.578125 C 18.492188 34.613281 18.597656 34.675781 18.664062 34.71875 C 18.761719 34.789062 18.796875 34.796875 18.953125 34.796875 C 19.109375 34.796875 19.152344 34.78125 19.292969 34.699219 C 19.386719 34.648438 19.507812 34.59375 19.5625 34.570312 C 19.621094 34.558594 19.726562 34.496094 19.804688 34.433594 L 19.945312 34.3125 L 20.023438 34.503906 C 20.066406 34.605469 20.09375 34.710938 20.09375 34.734375 C 20.101562 34.84375 20.164062 34.976562 20.265625 35.089844 C 20.320312 35.152344 20.371094 35.222656 20.371094 35.242188 C 20.371094 35.304688 20.597656 35.53125 20.71875 35.585938 C 20.773438 35.613281 20.875 35.675781 20.9375 35.734375 C 21.007812 35.78125 21.109375 35.851562 21.164062 35.871094 C 21.222656 35.898438 21.328125 35.984375 21.414062 36.0625 C 21.535156 36.171875 21.570312 36.230469 21.597656 36.3125 C 21.640625 36.5 21.675781 36.570312 21.832031 36.765625 C 21.9375 36.90625 21.992188 37.003906 22.042969 37.171875 C 22.128906 37.425781 22.261719 37.585938 22.433594 37.640625 L 22.539062 37.675781 L 22.5625 37.898438 C 22.597656 38.367188 22.625 38.507812 22.871094 39.261719 C 22.964844 39.550781 22.980469 39.621094 22.980469 39.84375 C 22.980469 40.03125 22.964844 40.128906 22.921875 40.234375 C 22.832031 40.480469 22.816406 40.71875 22.871094 41.179688 L 22.929688 41.589844 L 22.867188 41.648438 C 22.816406 41.695312 22.757812 41.703125 22.53125 41.71875 C 22.261719 41.738281 22.234375 41.746094 21.808594 41.90625 C 21.460938 42.039062 21.414062 42.050781 21.121094 42.082031 C 20.917969 42.09375 20.773438 42.121094 20.660156 42.164062 C 20.5625 42.207031 20.457031 42.234375 20.421875 42.234375 C 20.320312 42.234375 20.039062 42.382812 19.960938 42.480469 C 19.859375 42.589844 19.457031 43.253906 19.371094 43.429688 C 19.335938 43.507812 19.292969 43.679688 19.273438 43.816406 C 19.214844 44.15625 19.082031 44.449219 18.890625 44.652344 C 18.710938 44.84375 18.65625 44.945312 18.5625 45.289062 C 18.519531 45.445312 18.429688 45.6875 18.328125 45.875 C 18.054688 46.414062 18.046875 46.644531 18.273438 46.96875 C 18.378906 47.113281 18.386719 47.140625 18.386719 47.304688 C 18.386719 47.429688 18.359375 47.574219 18.273438 47.839844 C 18.09375 48.4375 18.082031 48.75 18.230469 49.066406 C 18.265625 49.140625 18.300781 49.246094 18.316406 49.300781 C 18.351562 49.476562 18.4375 49.597656 18.628906 49.75 C 18.890625 49.960938 18.925781 49.972656 19.316406 49.996094 L 19.667969 50.015625 L 19.761719 50.121094 C 19.8125 50.175781 19.882812 50.28125 19.925781 50.351562 C 19.964844 50.421875 20.015625 50.503906 20.039062 50.53125 C 20.101562 50.601562 20.265625 50.679688 20.398438 50.695312 C 20.464844 50.699219 20.582031 50.734375 20.652344 50.757812 C 20.730469 50.785156 20.867188 50.8125 20.953125 50.828125 C 21.042969 50.832031 21.226562 50.863281 21.363281 50.882812 C 21.496094 50.902344 21.730469 50.917969 21.878906 50.917969 C 22.03125 50.917969 22.199219 50.929688 22.261719 50.945312 C 22.425781 50.980469 22.71875 50.980469 22.824219 50.929688 C 22.871094 50.910156 22.980469 50.847656 23.058594 50.785156 C 23.136719 50.730469 23.253906 50.660156 23.3125 50.636719 C 23.558594 50.5625 23.800781 50.46875 23.886719 50.429688 C 24 50.367188 24.226562 50.070312 24.367188 49.8125 C 24.476562 49.617188 24.476562 49.609375 24.628906 49.566406 C 24.714844 49.546875 24.871094 49.527344 24.972656 49.519531 C 25.183594 49.503906 25.339844 49.441406 25.585938 49.253906 C 25.6875 49.183594 25.8125 49.121094 25.933594 49.078125 C 26.175781 49.007812 26.238281 48.945312 26.417969 48.617188 C 26.488281 48.46875 26.578125 48.304688 26.617188 48.238281 C 26.679688 48.113281 26.730469 47.847656 26.734375 47.640625 C 26.734375 47.492188 26.898438 47.09375 27.019531 46.941406 C 27.070312 46.875 27.152344 46.738281 27.203125 46.632812 C 27.261719 46.527344 27.359375 46.351562 27.429688 46.234375 C 27.621094 45.910156 27.664062 45.730469 27.648438 45.375 C 27.644531 45.148438 27.621094 45.03125 27.566406 44.882812 C 27.53125 44.773438 27.5 44.679688 27.507812 44.679688 C 27.507812 44.675781 27.613281 44.722656 27.734375 44.777344 C 27.941406 44.882812 27.953125 44.898438 27.996094 45.015625 C 28.027344 45.085938 28.0625 45.171875 28.089844 45.207031 C 28.117188 45.234375 28.167969 45.3125 28.195312 45.367188 C 28.308594 45.578125 28.472656 45.679688 28.761719 45.710938 C 28.847656 45.722656 28.996094 45.757812 29.089844 45.792969 C 29.214844 45.835938 29.308594 45.855469 29.464844 45.855469 C 29.65625 45.855469 29.683594 45.847656 29.960938 45.710938 C 30.125 45.632812 30.316406 45.519531 30.386719 45.457031 C 30.507812 45.359375 30.527344 45.351562 30.703125 45.339844 C 30.882812 45.324219 30.890625 45.324219 30.996094 45.421875 C 31.195312 45.605469 31.613281 45.75 31.832031 45.710938 C 32.128906 45.652344 32.285156 45.445312 32.363281 44.988281 C 32.378906 44.890625 32.398438 44.777344 32.40625 44.730469 L 32.421875 44.644531 L 32.730469 44.644531 C 32.902344 44.644531 33.074219 44.632812 33.113281 44.617188 C 33.15625 44.605469 33.300781 44.578125 33.425781 44.554688 C 33.886719 44.484375 34.070312 44.347656 34.363281 43.808594 C 34.527344 43.515625 34.652344 43.386719 34.859375 43.347656 L 35 43.316406 L 35 43.457031 C 35 43.757812 35.191406 43.949219 35.539062 43.980469 C 35.746094 44.003906 35.902344 43.960938 36.113281 43.828125 C 36.210938 43.765625 36.339844 43.695312 36.398438 43.667969 C 36.453125 43.648438 36.546875 43.589844 36.59375 43.546875 C 36.644531 43.507812 36.722656 43.464844 36.773438 43.449219 C 37.113281 43.382812 37.289062 43.101562 37.332031 42.585938 C 37.339844 42.402344 37.332031 42.324219 37.304688 42.234375 C 37.261719 42.109375 37.238281 41.621094 37.277344 41.445312 L 37.296875 41.359375 L 37.550781 41.382812 C 37.699219 41.394531 37.90625 41.402344 38.019531 41.402344 C 38.210938 41.402344 38.230469 41.402344 38.375 41.3125 C 38.628906 41.15625 38.777344 40.925781 38.84375 40.621094 L 38.871094 40.453125 L 39.082031 40.332031 C 39.195312 40.261719 39.367188 40.179688 39.464844 40.144531 C 39.558594 40.109375 39.726562 40.03125 39.839844 39.984375 C 39.953125 39.925781 40.117188 39.855469 40.203125 39.824219 C 40.5625 39.683594 40.820312 39.234375 40.828125 38.738281 C 40.828125 38.523438 40.753906 38.199219 40.605469 37.726562 C 40.570312 37.628906 40.550781 37.496094 40.550781 37.425781 C 40.550781 37.363281 40.515625 37.214844 40.480469 37.109375 C 40.351562 36.765625 40.253906 36.621094 40.054688 36.433594 L 39.855469 36.257812 L 39.976562 36.136719 C 40.039062 36.066406 40.167969 35.898438 40.265625 35.753906 C 40.359375 35.613281 40.449219 35.496094 40.480469 35.480469 C 40.535156 35.460938 40.683594 35.230469 40.726562 35.082031 C 40.753906 35 40.769531 34.835938 40.769531 34.683594 C 40.769531 34.425781 40.734375 34.285156 40.59375 33.957031 C 40.5625 33.902344 40.527344 33.769531 40.507812 33.664062 C 40.449219 33.375 40.367188 33.207031 40.082031 32.804688 C 39.941406 32.601562 39.792969 32.371094 39.75 32.292969 C 39.636719 32.109375 39.367188 31.867188 39.167969 31.78125 C 39.082031 31.742188 38.992188 31.699219 38.96875 31.691406 C 38.949219 31.675781 38.847656 31.46875 38.742188 31.222656 L 38.558594 30.78125 L 38.671875 30.558594 C 38.777344 30.355469 38.792969 30.320312 38.800781 30.078125 C 38.8125 29.859375 38.804688 29.789062 38.757812 29.65625 C 38.714844 29.546875 38.699219 29.441406 38.699219 29.28125 C 38.699219 29.082031 38.6875 29.035156 38.628906 28.9375 C 38.585938 28.867188 38.523438 28.75 38.472656 28.664062 C 38.410156 28.523438 38.402344 28.503906 38.429688 28.390625 C 38.464844 28.25 38.429688 28.085938 38.316406 27.9375 C 38.273438 27.882812 38.195312 27.753906 38.148438 27.652344 C 38.082031 27.539062 38.003906 27.433594 37.933594 27.378906 C 37.871094 27.328125 37.757812 27.230469 37.6875 27.175781 C 37.617188 27.121094 37.53125 27.054688 37.496094 27.042969 C 37.460938 27.019531 37.355469 26.945312 37.246094 26.867188 C 37.148438 26.785156 36.976562 26.671875 36.878906 26.609375 C 36.660156 26.484375 36.453125 26.292969 36.425781 26.1875 C 36.417969 26.148438 36.382812 26.054688 36.347656 25.980469 C 36.3125 25.910156 36.277344 25.804688 36.269531 25.757812 C 36.253906 25.636719 36.019531 25.132812 35.914062 24.972656 C 35.828125 24.847656 35.835938 24.910156 35.886719 24.292969 C 35.902344 24.15625 35.894531 24.113281 35.824219 23.964844 C 35.78125 23.875 35.695312 23.757812 35.644531 23.699219 C 35.574219 23.625 35.546875 23.5625 35.53125 23.46875 C 35.519531 23.398438 35.453125 23.238281 35.390625 23.113281 C 35.269531 22.890625 35.261719 22.882812 35.253906 22.597656 C 35.25 22.363281 35.234375 22.261719 35.175781 22.128906 C 35.136719 21.988281 35.105469 21.867188 35.097656 21.636719 C 35.09375 21.476562 35.070312 21.078125 35.058594 20.765625 C 35.023438 20.042969 35.023438 20.167969 35.042969 19.582031 L 35.0625 19.085938 L 34.929688 18.777344 L 34.800781 18.476562 L 34.800781 18.136719 L 34.792969 17.785156 L 34.589844 17.386719 C 34.453125 17.128906 34.363281 16.917969 34.335938 16.800781 C 34.3125 16.703125 34.269531 16.554688 34.242188 16.484375 C 34.214844 16.414062 34.183594 16.277344 34.179688 16.179688 C 34.171875 16.050781 34.136719 15.945312 34.066406 15.785156 C 33.765625 15.164062 33.605469 14.828125 33.574219 14.792969 C 33.554688 14.773438 33.53125 14.695312 33.519531 14.617188 C 33.503906 14.550781 33.460938 14.410156 33.425781 14.324219 L 33.339844 14.171875 L 33.378906 13.855469 C 33.414062 13.429688 33.414062 13.359375 33.339844 13.171875 C 33.3125 13.085938 33.285156 12.984375 33.285156 12.949219 C 33.285156 12.914062 33.269531 12.835938 33.242188 12.773438 C 33.207031 12.695312 33.207031 12.652344 33.226562 12.589844 C 33.25 12.542969 33.265625 12.480469 33.265625 12.453125 C 33.265625 12.417969 33.304688 12.296875 33.371094 12.1875 C 33.519531 11.886719 33.605469 11.632812 33.625 11.453125 C 33.648438 11.25 33.808594 10.730469 33.929688 10.460938 C 34.015625 10.261719 34.027344 10.207031 34.050781 9.863281 C 34.070312 9.65625 34.070312 9.4375 34.066406 9.390625 C 34.050781 9.339844 34.035156 9.109375 34.023438 8.878906 L 34.007812 8.460938 L 33.886719 8.199219 C 33.683594 7.761719 33.574219 7.683594 33.144531 7.667969 C 32.988281 7.667969 32.746094 7.675781 32.605469 7.699219 Z M 33.015625 8.960938 C 33.015625 9.128906 33.03125 9.332031 33.035156 9.402344 C 33.074219 9.65625 33.035156 9.992188 32.953125 10.164062 C 32.84375 10.382812 32.667969 10.96875 32.632812 11.191406 C 32.605469 11.394531 32.503906 11.660156 32.386719 11.863281 C 32.34375 11.933594 32.300781 12.046875 32.292969 12.117188 C 32.277344 12.179688 32.234375 12.304688 32.199219 12.386719 C 32.085938 12.597656 32.09375 12.753906 32.207031 12.984375 C 32.292969 13.136719 32.371094 13.382812 32.363281 13.445312 C 32.355469 13.515625 32.328125 14.117188 32.328125 14.242188 C 32.328125 14.347656 32.355469 14.429688 32.425781 14.570312 C 32.492188 14.6875 32.527344 14.808594 32.539062 14.90625 C 32.546875 15.050781 32.648438 15.28125 32.726562 15.347656 C 32.773438 15.382812 32.929688 15.679688 33.078125 16.023438 C 33.144531 16.164062 33.179688 16.289062 33.179688 16.367188 C 33.179688 16.429688 33.207031 16.554688 33.234375 16.632812 C 33.265625 16.710938 33.320312 16.882812 33.355469 17.015625 C 33.390625 17.175781 33.484375 17.394531 33.605469 17.625 L 33.789062 17.980469 L 33.78125 18.289062 C 33.773438 18.609375 33.773438 18.625 33.945312 19.003906 L 34.035156 19.210938 L 34.015625 19.703125 C 34 19.96875 34 20.210938 34.007812 20.253906 C 34.015625 20.289062 34.035156 20.5625 34.050781 20.855469 C 34.105469 22.007812 34.121094 22.148438 34.179688 22.273438 C 34.21875 22.359375 34.234375 22.46875 34.242188 22.699219 C 34.261719 23.035156 34.328125 23.28125 34.46875 23.511719 C 34.503906 23.574219 34.539062 23.664062 34.554688 23.714844 C 34.582031 23.859375 34.695312 24.105469 34.773438 24.203125 C 34.835938 24.289062 34.84375 24.300781 34.84375 24.707031 C 34.851562 25.15625 34.851562 25.148438 35.085938 25.554688 C 35.15625 25.679688 35.296875 25.988281 35.296875 26.023438 C 35.296875 26.035156 35.332031 26.121094 35.367188 26.203125 C 35.40625 26.289062 35.441406 26.425781 35.445312 26.519531 C 35.480469 26.832031 35.625 27.042969 35.863281 27.140625 C 35.914062 27.160156 35.964844 27.195312 35.972656 27.21875 C 35.976562 27.238281 36.113281 27.328125 36.269531 27.414062 C 36.425781 27.503906 36.609375 27.621094 36.679688 27.6875 C 36.75 27.75 36.878906 27.839844 36.957031 27.886719 C 37.234375 28.0625 37.289062 28.125 37.3125 28.265625 C 37.394531 28.796875 37.394531 28.804688 37.542969 29.082031 C 37.660156 29.300781 37.695312 29.390625 37.695312 29.480469 C 37.695312 29.546875 37.714844 29.699219 37.75 29.824219 L 37.808594 30.046875 L 37.664062 30.328125 C 37.539062 30.574219 37.523438 30.613281 37.523438 30.769531 C 37.515625 30.921875 37.539062 30.984375 37.6875 31.320312 C 37.773438 31.53125 37.890625 31.804688 37.941406 31.929688 C 37.984375 32.0625 38.0625 32.207031 38.105469 32.265625 C 38.210938 32.40625 38.445312 32.574219 38.578125 32.601562 C 38.742188 32.640625 38.84375 32.734375 38.992188 32.984375 C 39.0625 33.097656 39.1875 33.292969 39.273438 33.40625 C 39.472656 33.675781 39.480469 33.699219 39.53125 33.921875 C 39.550781 34.035156 39.609375 34.222656 39.65625 34.355469 C 39.804688 34.726562 39.804688 34.71875 39.683594 34.84375 C 39.628906 34.90625 39.53125 35.046875 39.457031 35.152344 C 39.394531 35.265625 39.238281 35.453125 39.097656 35.601562 C 38.804688 35.886719 38.765625 35.984375 38.785156 36.304688 C 38.804688 36.558594 38.882812 36.699219 39.1875 36.992188 C 39.472656 37.269531 39.535156 37.382812 39.558594 37.640625 C 39.566406 37.726562 39.609375 37.914062 39.648438 38.0625 C 39.839844 38.71875 39.847656 38.78125 39.804688 38.871094 C 39.777344 38.921875 39.75 38.957031 39.726562 38.957031 C 39.714844 38.957031 39.609375 39.003906 39.488281 39.054688 C 39.375 39.117188 39.167969 39.207031 39.039062 39.257812 C 38.90625 39.304688 38.714844 39.394531 38.609375 39.457031 C 38.5 39.523438 38.339844 39.605469 38.253906 39.648438 C 38.160156 39.695312 38.054688 39.773438 38.011719 39.824219 C 37.933594 39.921875 37.886719 40.109375 37.886719 40.304688 L 37.886719 40.421875 L 37.765625 40.421875 C 37.695312 40.421875 37.601562 40.402344 37.558594 40.382812 C 37.515625 40.359375 37.394531 40.339844 37.296875 40.324219 C 37.140625 40.320312 37.085938 40.324219 36.957031 40.367188 C 36.722656 40.453125 36.523438 40.585938 36.433594 40.703125 C 36.359375 40.800781 36.347656 40.855469 36.304688 41.199219 C 36.242188 41.710938 36.242188 42.199219 36.296875 42.386719 C 36.339844 42.527344 36.339844 42.535156 36.289062 42.570312 C 36.242188 42.597656 36.242188 42.589844 36.21875 42.421875 C 36.210938 42.261719 36.199219 42.21875 36.128906 42.136719 C 36.007812 41.988281 35.871094 41.933594 35.644531 41.933594 C 35.425781 41.933594 35.382812 41.949219 34.9375 42.21875 C 34.78125 42.3125 34.601562 42.402344 34.527344 42.421875 C 34.269531 42.480469 34.105469 42.570312 33.875 42.792969 C 33.703125 42.960938 33.617188 43.074219 33.492188 43.296875 L 33.328125 43.582031 L 33.121094 43.613281 C 33.015625 43.625 32.886719 43.652344 32.84375 43.667969 C 32.796875 43.6875 32.617188 43.703125 32.398438 43.703125 C 32.058594 43.703125 32.023438 43.710938 31.882812 43.773438 C 31.789062 43.816406 31.703125 43.878906 31.640625 43.953125 C 31.554688 44.074219 31.464844 44.28125 31.464844 44.386719 C 31.464844 44.457031 31.433594 44.464844 31.335938 44.402344 C 31.25 44.351562 31.199219 44.347656 30.972656 44.347656 C 30.324219 44.351562 30.039062 44.429688 29.789062 44.644531 C 29.726562 44.703125 29.628906 44.773438 29.5625 44.808594 C 29.449219 44.855469 29.441406 44.855469 29.324219 44.820312 C 29.253906 44.792969 29.167969 44.777344 29.125 44.777344 C 29.039062 44.777344 28.96875 44.6875 28.898438 44.507812 C 28.792969 44.242188 28.5 44.03125 27.917969 43.792969 C 27.558594 43.648438 27.289062 43.613281 27.035156 43.679688 C 26.949219 43.710938 26.820312 43.730469 26.75 43.746094 C 26.308594 43.792969 26.113281 43.988281 26.105469 44.347656 C 26.105469 44.542969 26.191406 44.703125 26.382812 44.890625 C 26.53125 45.039062 26.578125 45.109375 26.609375 45.210938 C 26.691406 45.476562 26.6875 45.511719 26.585938 45.679688 C 26.53125 45.773438 26.429688 45.941406 26.367188 46.066406 C 26.304688 46.191406 26.203125 46.351562 26.140625 46.4375 C 26.046875 46.5625 25.96875 46.714844 25.808594 47.148438 C 25.777344 47.226562 25.75 47.386719 25.742188 47.519531 C 25.730469 47.730469 25.707031 47.777344 25.617188 47.96875 C 25.507812 48.164062 25.488281 48.175781 25.355469 48.238281 C 25.269531 48.273438 25.125 48.351562 25.042969 48.414062 C 24.851562 48.554688 24.78125 48.582031 24.628906 48.582031 C 24.566406 48.582031 24.453125 48.605469 24.375 48.625 C 24.304688 48.644531 24.191406 48.660156 24.121094 48.660156 C 23.859375 48.667969 23.667969 48.820312 23.574219 49.113281 C 23.511719 49.308594 23.375 49.539062 23.296875 49.589844 C 23.261719 49.609375 23.121094 49.660156 22.980469 49.707031 C 22.710938 49.800781 22.632812 49.835938 22.519531 49.933594 C 22.453125 49.996094 22.433594 49.996094 22.285156 49.972656 C 22.199219 49.960938 22 49.945312 21.851562 49.945312 C 21.535156 49.945312 21.085938 49.890625 20.980469 49.835938 C 20.9375 49.8125 20.867188 49.785156 20.832031 49.777344 C 20.746094 49.757812 20.589844 49.5625 20.589844 49.476562 C 20.589844 49.351562 20.464844 49.140625 20.34375 49.066406 C 20.199219 48.972656 19.910156 48.945312 19.738281 49.007812 C 19.613281 49.066406 19.386719 49.050781 19.320312 48.988281 C 19.277344 48.953125 19.117188 48.582031 19.117188 48.527344 C 19.117188 48.503906 19.171875 48.308594 19.242188 48.09375 C 19.335938 47.792969 19.371094 47.644531 19.378906 47.441406 C 19.398438 47.09375 19.355469 46.808594 19.25 46.605469 C 19.171875 46.449219 19.171875 46.429688 19.207031 46.375 C 19.277344 46.261719 19.441406 45.863281 19.511719 45.617188 C 19.570312 45.402344 19.589844 45.359375 19.726562 45.226562 C 19.804688 45.144531 19.894531 45.015625 19.929688 44.945312 C 20.066406 44.675781 20.15625 44.421875 20.195312 44.226562 C 20.265625 43.890625 20.285156 43.828125 20.484375 43.5 C 20.667969 43.207031 20.691406 43.179688 20.773438 43.164062 C 20.832031 43.15625 20.929688 43.121094 20.996094 43.09375 C 21.066406 43.066406 21.171875 43.046875 21.265625 43.046875 C 21.476562 43.046875 21.859375 42.953125 22.105469 42.855469 C 22.519531 42.675781 22.574219 42.667969 22.816406 42.695312 C 23.148438 42.746094 23.226562 42.71875 23.523438 42.410156 C 23.964844 41.953125 23.984375 41.898438 23.878906 41.09375 L 23.824219 40.683594 L 23.902344 40.523438 C 23.972656 40.359375 23.972656 40.355469 23.964844 39.851562 L 23.957031 39.339844 L 23.851562 39.011719 C 23.789062 38.828125 23.703125 38.570312 23.660156 38.429688 C 23.601562 38.261719 23.558594 38.066406 23.53125 37.828125 C 23.480469 37.363281 23.433594 37.152344 23.296875 36.933594 C 23.277344 36.898438 23.234375 36.816406 23.207031 36.753906 C 23.164062 36.640625 23.023438 36.515625 22.910156 36.480469 C 22.816406 36.453125 22.597656 36.160156 22.5625 36.003906 C 22.503906 35.773438 22.433594 35.667969 22.136719 35.390625 C 21.929688 35.203125 21.789062 35.082031 21.667969 35.027344 C 21.40625 34.894531 21.101562 34.585938 21.066406 34.417969 C 21.050781 34.371094 21.015625 34.257812 20.980469 34.179688 C 20.953125 34.105469 20.902344 33.976562 20.875 33.90625 C 20.789062 33.675781 20.414062 33.355469 20.152344 33.285156 C 19.910156 33.222656 19.570312 33.328125 19.34375 33.539062 C 19.230469 33.636719 18.996094 33.761719 18.96875 33.726562 C 18.96875 33.726562 18.945312 33.691406 18.933594 33.664062 C 18.910156 33.628906 18.855469 33.550781 18.804688 33.503906 L 18.710938 33.40625 L 18.777344 33.167969 C 18.8125 33.039062 18.890625 32.839844 18.9375 32.71875 C 19.050781 32.472656 19.109375 32.257812 19.128906 31.976562 C 19.136719 31.867188 19.160156 31.734375 19.171875 31.675781 C 19.1875 31.613281 19.203125 31.53125 19.203125 31.488281 C 19.203125 31.378906 19.25 31.320312 19.394531 31.300781 C 19.570312 31.265625 19.738281 31.179688 19.929688 31.011719 C 20.050781 30.910156 20.128906 30.859375 20.234375 30.839844 C 20.320312 30.816406 20.433594 30.769531 20.503906 30.734375 C 20.578125 30.699219 20.675781 30.664062 20.730469 30.65625 C 20.832031 30.636719 21.171875 30.433594 21.40625 30.246094 C 21.476562 30.1875 21.546875 30.140625 21.5625 30.140625 C 21.640625 30.140625 21.867188 30.046875 22.015625 29.957031 C 22.105469 29.902344 22.234375 29.832031 22.304688 29.789062 C 22.375 29.746094 22.476562 29.683594 22.527344 29.644531 C 22.574219 29.601562 22.703125 29.53125 22.800781 29.480469 C 23.007812 29.382812 23.363281 29.148438 23.523438 29 C 23.574219 28.957031 23.667969 28.902344 23.714844 28.882812 C 23.957031 28.789062 24.070312 28.679688 24.339844 28.28125 C 24.539062 27.964844 24.589844 27.875 24.589844 27.753906 C 24.589844 27.621094 24.511719 27.246094 24.460938 27.113281 C 24.402344 26.980469 24.105469 26.558594 23.980469 26.449219 C 23.902344 26.371094 23.367188 26.023438 23.332031 26.023438 C 23.328125 26.023438 23.269531 26.007812 23.207031 26 C 23.140625 25.988281 23.035156 25.988281 22.972656 26 C 22.910156 26.015625 22.746094 26.035156 22.601562 26.042969 L 22.339844 26.070312 L 22.207031 25.953125 C 22.007812 25.789062 21.730469 25.6875 21.363281 25.65625 C 20.988281 25.625 20.929688 25.628906 20.625 25.785156 L 20.378906 25.894531 L 20.214844 25.742188 C 19.980469 25.519531 19.78125 25.421875 19.464844 25.390625 C 18.988281 25.34375 18.398438 25.40625 18.171875 25.539062 C 18.109375 25.574219 18.019531 25.601562 17.953125 25.601562 C 17.710938 25.601562 17.472656 25.757812 17.257812 26.050781 C 17.03125 26.371094 16.96875 26.449219 16.796875 26.636719 C 16.671875 26.785156 16.601562 26.894531 16.535156 27.042969 C 16.488281 27.160156 16.394531 27.320312 16.332031 27.414062 C 16.1875 27.609375 16.109375 27.839844 16.074219 28.1875 C 16.03125 28.566406 15.890625 29.230469 15.800781 29.460938 C 15.6875 29.746094 15.566406 29.878906 15.351562 29.984375 C 15.195312 30.054688 14.984375 30.230469 14.921875 30.34375 C 14.855469 30.453125 14.847656 30.621094 14.90625 30.964844 C 14.933594 31.152344 14.957031 31.328125 14.957031 31.347656 C 14.957031 31.371094 14.890625 31.496094 14.820312 31.621094 C 14.742188 31.753906 14.644531 31.941406 14.601562 32.054688 C 14.550781 32.179688 14.460938 32.335938 14.367188 32.441406 C 14.289062 32.539062 14.183594 32.699219 14.125 32.789062 C 14.070312 32.886719 13.933594 33.039062 13.828125 33.144531 C 13.523438 33.4375 13.277344 33.734375 13.167969 33.929688 C 13.121094 34.035156 13.035156 34.167969 12.984375 34.238281 C 12.859375 34.402344 12.792969 34.550781 12.730469 34.867188 C 12.679688 35.109375 12.660156 35.160156 12.515625 35.355469 C 12.433594 35.480469 12.289062 35.640625 12.199219 35.710938 C 12.105469 35.789062 11.921875 35.957031 11.773438 36.089844 C 11.558594 36.292969 11.484375 36.347656 11.277344 36.433594 C 10.859375 36.621094 10.496094 36.832031 10.304688 36.996094 C 10.207031 37.089844 9.953125 37.277344 9.730469 37.429688 C 9.320312 37.726562 9.164062 37.859375 8.753906 38.3125 C 8.457031 38.632812 8.285156 38.800781 8.109375 38.925781 C 7.996094 39.003906 7.9375 39.03125 7.710938 39.066406 L 7.441406 39.117188 L 7.34375 39.054688 C 7.292969 39.019531 7.207031 38.960938 7.164062 38.941406 C 7.082031 38.886719 6.890625 38.691406 6.746094 38.492188 C 6.699219 38.425781 6.648438 38.292969 6.589844 38.074219 C 6.507812 37.710938 6.464844 37.613281 6.273438 37.382812 C 6.132812 37.199219 6.046875 37.117188 5.917969 37.039062 L 5.847656 36.996094 L 6.019531 36.871094 C 6.171875 36.765625 6.34375 36.597656 6.746094 36.1875 C 6.8125 36.117188 6.9375 36.003906 7.03125 35.933594 C 7.378906 35.683594 7.570312 35.375 7.648438 34.929688 C 7.703125 34.613281 7.699219 34.566406 7.585938 34.203125 C 7.5 33.9375 7.378906 33.761719 7.222656 33.683594 C 7.128906 33.636719 7.128906 33.578125 7.285156 33.195312 C 7.429688 32.84375 7.464844 32.773438 7.648438 32.496094 C 7.726562 32.375 7.839844 32.203125 7.890625 32.109375 C 7.953125 31.992188 8.101562 31.816406 8.378906 31.539062 C 8.589844 31.3125 8.808594 31.078125 8.851562 31.007812 C 8.917969 30.910156 8.972656 30.859375 9.09375 30.796875 C 9.1875 30.753906 9.300781 30.71875 9.347656 30.71875 C 9.398438 30.71875 9.492188 30.707031 9.5625 30.691406 C 9.789062 30.636719 10.078125 30.320312 10.148438 30.054688 C 10.207031 29.816406 10.09375 29.433594 9.902344 29.265625 C 9.824219 29.1875 9.816406 29.175781 9.816406 29 C 9.816406 28.8125 9.824219 28.796875 10 28.46875 C 10.101562 28.285156 10.226562 28.0625 10.292969 27.980469 C 10.460938 27.742188 10.675781 27.34375 10.730469 27.160156 C 10.773438 27.015625 10.773438 26.980469 10.730469 26.726562 C 10.660156 26.308594 10.589844 26.1875 10.222656 25.820312 C 9.886719 25.496094 9.589844 25.34375 9.179688 25.300781 C 8.988281 25.28125 8.886719 25.238281 8.769531 25.121094 C 8.617188 24.988281 8.65625 24.804688 8.851562 24.699219 C 9.015625 24.617188 9.355469 24.265625 9.632812 23.894531 C 9.683594 23.832031 9.84375 23.660156 9.992188 23.519531 C 10.375 23.15625 10.382812 23.128906 10.40625 22.617188 C 10.417969 22.296875 10.414062 22.164062 10.375 22.007812 C 10.3125 21.722656 10.242188 21.511719 10.136719 21.335938 C 10.050781 21.191406 10.042969 21.167969 10.078125 21.101562 C 10.101562 21.058594 10.148438 20.9375 10.191406 20.839844 C 10.234375 20.734375 10.296875 20.5625 10.335938 20.449219 C 10.414062 20.175781 10.574219 19.75 10.617188 19.703125 C 10.730469 19.574219 10.84375 19.234375 10.859375 18.960938 C 10.886719 18.679688 10.921875 18.609375 11.070312 18.589844 C 11.136719 18.574219 11.292969 18.519531 11.417969 18.464844 C 11.652344 18.351562 11.808594 18.226562 11.929688 18.042969 C 11.992188 17.953125 12.21875 17.8125 12.289062 17.8125 C 12.3125 17.8125 12.433594 17.90625 12.558594 18.023438 C 12.964844 18.375 13.175781 18.421875 13.582031 18.242188 C 13.699219 18.183594 13.835938 18.121094 13.886719 18.085938 C 14.019531 18.003906 14.601562 17.441406 14.734375 17.277344 C 14.800781 17.183594 15.148438 16.835938 15.5 16.492188 L 16.144531 15.878906 L 16.457031 15.714844 C 16.664062 15.613281 16.839844 15.542969 16.960938 15.515625 C 17.066406 15.492188 17.273438 15.421875 17.421875 15.351562 C 17.65625 15.242188 17.710938 15.199219 17.953125 14.953125 C 18.109375 14.800781 18.324219 14.550781 18.4375 14.375 C 18.648438 14.082031 18.742188 13.96875 18.742188 14.03125 C 18.742188 14.058594 18.675781 14.429688 18.613281 14.78125 C 18.585938 14.949219 18.535156 15.09375 18.449219 15.253906 C 18.386719 15.382812 18.292969 15.5625 18.25 15.660156 C 18.203125 15.757812 18.144531 15.871094 18.117188 15.925781 C 18.03125 16.074219 17.867188 16.4375 17.867188 16.476562 C 17.867188 16.5 17.839844 16.597656 17.796875 16.6875 C 17.761719 16.785156 17.726562 16.925781 17.71875 17.003906 C 17.710938 17.078125 17.683594 17.242188 17.65625 17.367188 C 17.605469 17.632812 17.621094 18.28125 17.691406 18.535156 C 17.75 18.757812 17.742188 19.03125 17.675781 19.199219 C 17.640625 19.273438 17.613281 19.421875 17.613281 19.527344 C 17.605469 19.632812 17.585938 19.855469 17.570312 20.03125 C 17.558594 20.199219 17.550781 20.378906 17.558594 20.421875 C 17.5625 20.464844 17.570312 20.570312 17.585938 20.644531 C 17.59375 20.730469 17.628906 20.855469 17.664062 20.925781 C 17.742188 21.085938 17.917969 21.34375 18.003906 21.421875 C 18.039062 21.449219 18.082031 21.503906 18.101562 21.546875 C 18.167969 21.660156 18.359375 21.847656 18.464844 21.902344 C 18.519531 21.933594 18.675781 21.964844 18.8125 21.980469 C 19.1875 22.023438 19.292969 21.980469 19.554688 21.722656 C 19.769531 21.511719 19.894531 21.300781 19.996094 21 C 20.050781 20.835938 20.152344 20.308594 20.164062 20.121094 C 20.179688 19.96875 20.179688 18.875 20.171875 18.804688 C 20.15625 18.714844 20.242188 18.207031 20.308594 18.007812 C 20.378906 17.808594 20.5 17.5625 20.640625 17.351562 C 20.886719 16.988281 20.953125 16.640625 20.867188 15.976562 L 20.851562 15.828125 L 20.996094 15.773438 C 21.226562 15.6875 21.589844 15.5625 21.851562 15.480469 C 22.3125 15.332031 22.417969 15.289062 22.511719 15.242188 C 22.5625 15.214844 22.675781 15.171875 22.765625 15.148438 C 23.078125 15.074219 23.390625 14.84375 23.433594 14.660156 C 23.441406 14.625 23.511719 14.5 23.582031 14.375 C 23.652344 14.25 23.714844 14.136719 23.714844 14.121094 C 23.714844 14.109375 23.792969 14.074219 23.886719 14.039062 C 23.980469 13.996094 24.105469 13.925781 24.175781 13.863281 C 24.246094 13.800781 24.339844 13.738281 24.382812 13.710938 C 24.425781 13.6875 24.550781 13.613281 24.652344 13.535156 C 24.757812 13.457031 24.921875 13.367188 25.011719 13.324219 C 25.199219 13.242188 25.621094 12.886719 25.773438 12.675781 C 25.820312 12.605469 25.90625 12.519531 25.957031 12.488281 C 26.089844 12.386719 26.183594 12.269531 26.339844 11.988281 C 26.453125 11.792969 26.496094 11.738281 26.601562 11.675781 C 26.664062 11.632812 26.769531 11.535156 26.828125 11.457031 C 26.890625 11.382812 26.984375 11.261719 27.046875 11.191406 C 27.113281 11.125 27.195312 11.019531 27.238281 10.957031 C 27.28125 10.890625 27.359375 10.824219 27.402344 10.792969 C 27.558594 10.730469 27.742188 10.429688 27.914062 10.003906 C 27.960938 9.894531 28.039062 9.746094 28.089844 9.691406 C 28.203125 9.5625 28.257812 9.5625 28.601562 9.675781 C 28.855469 9.765625 29.089844 9.78125 29.230469 9.730469 C 29.265625 9.710938 29.386719 9.691406 29.484375 9.683594 C 29.632812 9.660156 29.742188 9.628906 30.003906 9.496094 C 30.195312 9.402344 30.394531 9.285156 30.464844 9.214844 C 30.535156 9.152344 30.621094 9.09375 30.664062 9.089844 C 30.703125 9.082031 30.855469 9.089844 30.996094 9.101562 C 31.144531 9.125 31.378906 9.136719 31.519531 9.144531 C 31.773438 9.144531 31.773438 9.144531 32.117188 8.992188 C 32.308594 8.90625 32.5 8.808594 32.546875 8.765625 C 32.683594 8.667969 32.710938 8.664062 32.875 8.664062 L 33.015625 8.65625 Z M 33.015625 8.960938 "/>
</g>
</svg>
