<?xml version="1.0" encoding="UTF-8"?>
<svg xmlns="http://www.w3.org/2000/svg" xmlns:xlink="http://www.w3.org/1999/xlink" width="25pt" height="35pt" viewBox="0 0 25 35" version="1.1">
<g id="surface1">
<path style=" stroke:none;fill-rule:nonzero;fill:rgb(0%,0%,0%);fill-opacity:1;" d="M 17.96875 4.300781 C 17.8125 4.320312 17.730469 4.355469 17.621094 4.441406 C 17.511719 4.535156 17.414062 4.570312 17.335938 4.558594 C 17.300781 4.550781 17.160156 4.539062 17.019531 4.535156 C 16.777344 4.523438 16.757812 4.527344 16.6875 4.558594 C 16.589844 4.597656 16.476562 4.675781 16.410156 4.742188 C 16.339844 4.816406 16.261719 4.851562 16.121094 4.875 C 15.984375 4.898438 15.9375 4.894531 15.820312 4.84375 C 15.722656 4.796875 15.582031 4.792969 15.4375 4.828125 C 15.28125 4.867188 15.1875 4.925781 15.0625 5.050781 C 14.929688 5.183594 14.929688 5.183594 14.875 5.34375 C 14.816406 5.507812 14.773438 5.585938 14.707031 5.628906 C 14.675781 5.648438 14.613281 5.714844 14.566406 5.777344 C 14.390625 6.015625 14.335938 6.082031 14.285156 6.101562 C 14.253906 6.113281 14.214844 6.144531 14.191406 6.167969 C 14.15625 6.203125 13.96875 6.515625 13.96875 6.535156 C 13.96875 6.542969 13.9375 6.566406 13.902344 6.589844 C 13.867188 6.617188 13.8125 6.671875 13.785156 6.710938 C 13.71875 6.804688 13.554688 6.957031 13.480469 6.984375 C 13.445312 7 13.355469 7.058594 13.273438 7.117188 C 13.1875 7.171875 13.105469 7.230469 13.085938 7.238281 C 13.066406 7.25 13.027344 7.277344 12.996094 7.304688 C 12.964844 7.332031 12.894531 7.371094 12.835938 7.394531 C 12.734375 7.429688 12.609375 7.5 12.527344 7.5625 C 12.464844 7.609375 12.425781 7.695312 12.410156 7.808594 C 12.398438 7.921875 12.390625 7.945312 12.359375 7.945312 C 12.34375 7.945312 12.296875 7.960938 12.25 7.980469 C 12.203125 8.003906 12.121094 8.035156 12.066406 8.050781 C 12.011719 8.070312 11.84375 8.128906 11.691406 8.183594 C 11.539062 8.238281 11.371094 8.296875 11.324219 8.3125 C 11.148438 8.367188 11.023438 8.488281 10.972656 8.660156 C 10.929688 8.796875 10.921875 8.890625 10.941406 9.015625 C 10.984375 9.242188 10.96875 9.296875 10.800781 9.582031 C 10.707031 9.742188 10.605469 10.027344 10.578125 10.222656 C 10.570312 10.296875 10.5625 10.542969 10.558594 10.792969 C 10.554688 11.179688 10.550781 11.253906 10.523438 11.402344 C 10.503906 11.496094 10.476562 11.605469 10.457031 11.644531 L 10.425781 11.714844 L 10.359375 11.644531 C 10.324219 11.605469 10.28125 11.542969 10.265625 11.507812 C 10.234375 11.449219 10.234375 11.429688 10.242188 11.289062 C 10.265625 10.976562 10.277344 10.882812 10.304688 10.824219 C 10.328125 10.773438 10.332031 10.738281 10.328125 10.554688 C 10.328125 10.425781 10.316406 10.308594 10.304688 10.257812 C 10.257812 10.082031 10.292969 9.613281 10.363281 9.449219 C 10.375 9.417969 10.386719 9.382812 10.386719 9.371094 C 10.386719 9.347656 10.464844 9.15625 10.492188 9.117188 C 10.5 9.105469 10.535156 9.039062 10.566406 8.96875 C 10.597656 8.902344 10.652344 8.796875 10.6875 8.730469 C 10.753906 8.609375 10.789062 8.484375 10.828125 8.257812 C 10.839844 8.179688 10.863281 8.050781 10.875 7.976562 C 10.902344 7.828125 10.894531 7.722656 10.835938 7.570312 C 10.800781 7.476562 10.679688 7.339844 10.574219 7.269531 C 10.453125 7.195312 10.300781 7.199219 10.132812 7.285156 C 10.027344 7.335938 9.859375 7.511719 9.726562 7.699219 C 9.496094 8.03125 9.433594 8.082031 9.160156 8.148438 C 9.089844 8.164062 8.984375 8.207031 8.921875 8.238281 C 8.859375 8.273438 8.757812 8.324219 8.699219 8.351562 C 8.609375 8.394531 8.550781 8.445312 8.1875 8.804688 C 7.960938 9.03125 7.738281 9.257812 7.695312 9.3125 C 7.617188 9.417969 7.398438 9.625 7.332031 9.65625 C 7.300781 9.671875 7.289062 9.667969 7.183594 9.578125 C 7.039062 9.453125 6.964844 9.421875 6.808594 9.414062 C 6.648438 9.402344 6.574219 9.421875 6.394531 9.519531 C 6.238281 9.605469 6.191406 9.648438 6.144531 9.734375 C 6.109375 9.796875 6.070312 9.820312 5.9375 9.855469 C 5.804688 9.886719 5.757812 9.914062 5.65625 10 C 5.59375 10.054688 5.558594 10.101562 5.523438 10.179688 C 5.460938 10.308594 5.425781 10.4375 5.425781 10.539062 C 5.425781 10.632812 5.398438 10.707031 5.347656 10.773438 C 5.328125 10.800781 5.296875 10.851562 5.285156 10.890625 C 5.273438 10.925781 5.25 10.984375 5.234375 11.023438 C 5.21875 11.058594 5.191406 11.136719 5.179688 11.199219 C 5.148438 11.320312 5.046875 11.582031 5.007812 11.636719 C 4.964844 11.695312 4.941406 11.796875 4.953125 11.871094 C 4.960938 11.90625 5 12.003906 5.046875 12.089844 C 5.152344 12.285156 5.1875 12.433594 5.175781 12.597656 L 5.167969 12.714844 L 5.0625 12.816406 C 5.003906 12.871094 4.929688 12.957031 4.894531 13 C 4.769531 13.167969 4.640625 13.300781 4.585938 13.324219 C 4.519531 13.355469 4.351562 13.53125 4.265625 13.664062 C 4.222656 13.730469 4.203125 13.90625 4.222656 14.027344 C 4.257812 14.230469 4.332031 14.359375 4.464844 14.445312 C 4.496094 14.464844 4.554688 14.507812 4.59375 14.539062 C 4.703125 14.625 4.773438 14.652344 4.941406 14.675781 C 5.128906 14.703125 5.191406 14.734375 5.277344 14.839844 C 5.332031 14.902344 5.347656 14.933594 5.355469 14.992188 C 5.367188 15.0625 5.359375 15.074219 5.296875 15.195312 C 5.257812 15.265625 5.199219 15.355469 5.167969 15.398438 C 5.085938 15.507812 4.890625 15.898438 4.863281 16.003906 C 4.820312 16.164062 4.859375 16.542969 4.921875 16.605469 C 4.949219 16.628906 4.964844 16.617188 4.742188 16.726562 C 4.632812 16.785156 4.492188 16.914062 4.414062 17.03125 C 4.390625 17.066406 4.28125 17.191406 4.167969 17.308594 C 3.953125 17.53125 3.898438 17.601562 3.828125 17.734375 C 3.808594 17.777344 3.757812 17.859375 3.71875 17.917969 C 3.609375 18.078125 3.574219 18.140625 3.523438 18.277344 C 3.5 18.34375 3.453125 18.460938 3.421875 18.535156 C 3.355469 18.6875 3.347656 18.808594 3.390625 18.921875 C 3.402344 18.957031 3.417969 19.015625 3.421875 19.054688 C 3.425781 19.089844 3.433594 19.136719 3.445312 19.15625 C 3.464844 19.207031 3.5625 19.292969 3.625 19.316406 C 3.671875 19.335938 3.671875 19.335938 3.664062 19.410156 C 3.648438 19.539062 3.609375 19.601562 3.511719 19.667969 C 3.390625 19.757812 3.289062 19.855469 3.222656 19.949219 C 3.1875 19.996094 3.132812 20.054688 3.097656 20.082031 C 3.0625 20.109375 2.96875 20.183594 2.890625 20.246094 C 2.726562 20.371094 2.660156 20.445312 2.644531 20.511719 C 2.640625 20.535156 2.617188 20.589844 2.597656 20.625 C 2.546875 20.726562 2.527344 20.835938 2.546875 20.910156 C 2.578125 21.023438 2.792969 21.179688 2.945312 21.199219 C 2.976562 21.203125 3.015625 21.21875 3.027344 21.234375 C 3.054688 21.257812 3.105469 21.445312 3.125 21.574219 C 3.136719 21.652344 3.183594 21.730469 3.304688 21.875 C 3.355469 21.929688 3.414062 22.003906 3.441406 22.035156 C 3.5 22.109375 3.589844 22.183594 3.695312 22.242188 C 3.738281 22.265625 3.785156 22.296875 3.808594 22.316406 C 3.917969 22.414062 4.015625 22.425781 4.316406 22.375 C 4.589844 22.328125 4.671875 22.292969 4.875 22.121094 C 5 22.015625 5.230469 21.777344 5.367188 21.621094 C 5.40625 21.574219 5.53125 21.46875 5.664062 21.371094 C 5.792969 21.28125 5.933594 21.171875 5.972656 21.132812 C 6.054688 21.054688 6.210938 20.964844 6.480469 20.835938 C 6.636719 20.761719 6.671875 20.738281 6.789062 20.625 C 6.859375 20.554688 6.964844 20.460938 7.015625 20.417969 C 7.148438 20.320312 7.242188 20.214844 7.367188 20.042969 C 7.488281 19.871094 7.519531 19.804688 7.554688 19.628906 C 7.589844 19.460938 7.59375 19.457031 7.652344 19.375 C 7.679688 19.339844 7.722656 19.261719 7.753906 19.207031 C 7.792969 19.125 7.847656 19.0625 8 18.910156 C 8.136719 18.777344 8.207031 18.691406 8.242188 18.625 C 8.269531 18.574219 8.324219 18.492188 8.363281 18.445312 C 8.464844 18.320312 8.507812 18.25 8.558594 18.125 C 8.582031 18.0625 8.636719 17.957031 8.675781 17.886719 C 8.800781 17.671875 8.820312 17.582031 8.789062 17.351562 C 8.777344 17.277344 8.777344 17.210938 8.78125 17.210938 C 8.847656 17.1875 9.035156 16.992188 9.128906 16.847656 C 9.160156 16.800781 9.207031 16.710938 9.234375 16.644531 C 9.292969 16.5 9.375 16.128906 9.414062 15.851562 C 9.4375 15.648438 9.441406 15.640625 9.503906 15.550781 C 9.542969 15.496094 9.589844 15.410156 9.613281 15.351562 C 9.640625 15.28125 9.679688 15.226562 9.734375 15.167969 C 9.777344 15.125 9.84375 15.042969 9.878906 14.988281 C 9.960938 14.863281 9.972656 14.851562 10.058594 14.839844 C 10.097656 14.835938 10.167969 14.808594 10.21875 14.785156 C 10.300781 14.742188 10.308594 14.742188 10.515625 14.738281 L 10.734375 14.738281 L 10.773438 14.789062 C 10.839844 14.875 10.929688 14.953125 11 14.984375 C 11.054688 15.007812 11.097656 15.015625 11.210938 15.015625 C 11.347656 15.015625 11.359375 15.011719 11.488281 14.953125 C 11.609375 14.898438 11.640625 14.890625 11.734375 14.890625 C 11.851562 14.890625 11.855469 14.894531 11.949219 15.023438 C 12.011719 15.109375 12.121094 15.171875 12.214844 15.179688 C 12.273438 15.1875 12.304688 15.179688 12.375 15.148438 C 12.421875 15.125 12.488281 15.105469 12.523438 15.105469 C 12.554688 15.101562 12.609375 15.097656 12.640625 15.089844 C 12.691406 15.082031 12.710938 15.089844 12.769531 15.125 C 12.851562 15.175781 12.945312 15.304688 12.964844 15.386719 C 12.980469 15.445312 12.976562 15.457031 12.925781 15.539062 C 12.878906 15.613281 12.855469 15.632812 12.789062 15.660156 C 12.746094 15.679688 12.679688 15.726562 12.640625 15.761719 C 12.539062 15.855469 12.433594 15.925781 12.3125 15.984375 C 12.253906 16.011719 12.179688 16.058594 12.144531 16.085938 C 12.085938 16.132812 11.972656 16.203125 11.839844 16.269531 C 11.8125 16.285156 11.75 16.308594 11.703125 16.320312 C 11.644531 16.335938 11.589844 16.363281 11.53125 16.414062 C 11.359375 16.550781 11.296875 16.589844 11.214844 16.613281 C 11.167969 16.625 11.109375 16.648438 11.082031 16.664062 C 11.058594 16.679688 11 16.703125 10.949219 16.714844 C 10.863281 16.738281 10.738281 16.808594 10.671875 16.875 C 10.644531 16.90625 10.628906 16.910156 10.5625 16.902344 C 10.445312 16.890625 10.375 16.917969 10.292969 16.996094 C 10.207031 17.085938 10.0625 17.332031 10.042969 17.433594 C 10.003906 17.636719 9.980469 17.765625 9.976562 17.863281 C 9.96875 17.941406 9.953125 18.003906 9.910156 18.105469 C 9.816406 18.320312 9.75 18.570312 9.75 18.710938 C 9.75 18.8125 9.753906 18.835938 9.792969 18.898438 C 9.8125 18.933594 9.851562 18.980469 9.878906 18.996094 C 9.902344 19.015625 9.941406 19.070312 9.96875 19.121094 C 10.019531 19.222656 10.066406 19.273438 10.15625 19.320312 C 10.191406 19.339844 10.25 19.375 10.285156 19.398438 C 10.339844 19.4375 10.359375 19.441406 10.445312 19.441406 C 10.53125 19.441406 10.554688 19.433594 10.632812 19.386719 C 10.683594 19.359375 10.75 19.328125 10.78125 19.316406 C 10.8125 19.308594 10.871094 19.273438 10.914062 19.238281 L 10.992188 19.171875 L 11.035156 19.277344 C 11.058594 19.335938 11.074219 19.394531 11.074219 19.40625 C 11.078125 19.46875 11.113281 19.542969 11.167969 19.605469 C 11.199219 19.640625 11.226562 19.679688 11.226562 19.691406 C 11.226562 19.726562 11.351562 19.851562 11.417969 19.882812 C 11.449219 19.898438 11.503906 19.933594 11.539062 19.964844 C 11.578125 19.992188 11.632812 20.03125 11.664062 20.042969 C 11.695312 20.058594 11.753906 20.105469 11.800781 20.148438 C 11.867188 20.210938 11.886719 20.242188 11.902344 20.289062 C 11.925781 20.394531 11.945312 20.433594 12.03125 20.542969 C 12.089844 20.621094 12.121094 20.675781 12.148438 20.769531 C 12.195312 20.910156 12.269531 21 12.363281 21.03125 L 12.421875 21.050781 L 12.433594 21.175781 C 12.453125 21.4375 12.46875 21.515625 12.605469 21.9375 C 12.65625 22.097656 12.664062 22.136719 12.664062 22.261719 C 12.664062 22.367188 12.65625 22.421875 12.632812 22.480469 C 12.582031 22.617188 12.574219 22.75 12.605469 23.007812 L 12.636719 23.238281 L 12.601562 23.269531 C 12.574219 23.296875 12.542969 23.300781 12.417969 23.308594 C 12.269531 23.320312 12.253906 23.324219 12.019531 23.414062 C 11.828125 23.488281 11.800781 23.496094 11.640625 23.511719 C 11.527344 23.519531 11.449219 23.535156 11.386719 23.558594 C 11.332031 23.582031 11.273438 23.597656 11.253906 23.597656 C 11.199219 23.597656 11.042969 23.679688 11 23.734375 C 10.945312 23.796875 10.722656 24.167969 10.675781 24.265625 C 10.65625 24.308594 10.632812 24.40625 10.621094 24.480469 C 10.589844 24.671875 10.515625 24.835938 10.410156 24.949219 C 10.3125 25.054688 10.28125 25.113281 10.230469 25.304688 C 10.207031 25.390625 10.15625 25.527344 10.101562 25.632812 C 9.949219 25.933594 9.945312 26.0625 10.070312 26.242188 C 10.128906 26.324219 10.132812 26.339844 10.132812 26.429688 C 10.132812 26.5 10.117188 26.582031 10.070312 26.730469 C 9.972656 27.0625 9.964844 27.238281 10.046875 27.414062 C 10.066406 27.457031 10.085938 27.515625 10.09375 27.546875 C 10.113281 27.644531 10.160156 27.710938 10.265625 27.796875 C 10.410156 27.914062 10.429688 27.921875 10.644531 27.933594 L 10.839844 27.945312 L 10.890625 28.003906 C 10.917969 28.035156 10.957031 28.09375 10.980469 28.132812 C 11.003906 28.171875 11.03125 28.21875 11.042969 28.234375 C 11.078125 28.273438 11.167969 28.316406 11.242188 28.324219 C 11.277344 28.328125 11.34375 28.347656 11.382812 28.359375 C 11.425781 28.375 11.5 28.390625 11.546875 28.398438 C 11.597656 28.402344 11.699219 28.417969 11.773438 28.429688 C 11.847656 28.441406 11.976562 28.449219 12.058594 28.449219 C 12.140625 28.449219 12.234375 28.457031 12.269531 28.464844 C 12.359375 28.484375 12.519531 28.484375 12.578125 28.457031 C 12.605469 28.445312 12.664062 28.410156 12.707031 28.375 C 12.75 28.34375 12.816406 28.304688 12.847656 28.292969 C 12.984375 28.25 13.117188 28.199219 13.164062 28.175781 C 13.226562 28.140625 13.351562 27.976562 13.429688 27.832031 C 13.488281 27.722656 13.488281 27.71875 13.574219 27.695312 C 13.621094 27.683594 13.707031 27.671875 13.761719 27.667969 C 13.878906 27.660156 13.964844 27.625 14.101562 27.519531 C 14.15625 27.480469 14.226562 27.445312 14.292969 27.421875 C 14.425781 27.382812 14.460938 27.347656 14.558594 27.164062 C 14.597656 27.082031 14.648438 26.988281 14.667969 26.953125 C 14.703125 26.882812 14.730469 26.734375 14.734375 26.617188 C 14.734375 26.535156 14.824219 26.3125 14.890625 26.226562 C 14.917969 26.191406 14.964844 26.113281 14.992188 26.054688 C 15.023438 25.996094 15.078125 25.898438 15.117188 25.832031 C 15.222656 25.652344 15.246094 25.550781 15.238281 25.351562 C 15.234375 25.226562 15.222656 25.160156 15.191406 25.078125 C 15.171875 25.015625 15.15625 24.964844 15.160156 24.964844 C 15.160156 24.960938 15.21875 24.988281 15.285156 25.019531 C 15.398438 25.078125 15.40625 25.085938 15.429688 25.152344 C 15.445312 25.191406 15.464844 25.238281 15.480469 25.257812 C 15.496094 25.273438 15.523438 25.316406 15.539062 25.347656 C 15.601562 25.464844 15.691406 25.523438 15.851562 25.539062 C 15.898438 25.546875 15.980469 25.566406 16.03125 25.585938 C 16.101562 25.609375 16.152344 25.621094 16.238281 25.621094 C 16.34375 25.621094 16.359375 25.617188 16.511719 25.539062 C 16.601562 25.496094 16.707031 25.433594 16.746094 25.398438 C 16.8125 25.34375 16.824219 25.339844 16.921875 25.332031 C 17.019531 25.324219 17.023438 25.324219 17.082031 25.378906 C 17.191406 25.480469 17.421875 25.5625 17.542969 25.539062 C 17.707031 25.507812 17.792969 25.390625 17.835938 25.136719 C 17.84375 25.082031 17.855469 25.019531 17.859375 24.992188 L 17.867188 24.945312 L 18.039062 24.945312 C 18.132812 24.945312 18.226562 24.9375 18.25 24.929688 C 18.273438 24.921875 18.351562 24.90625 18.421875 24.894531 C 18.675781 24.855469 18.777344 24.777344 18.9375 24.476562 C 19.027344 24.3125 19.097656 24.242188 19.210938 24.21875 L 19.289062 24.203125 L 19.289062 24.28125 C 19.289062 24.449219 19.394531 24.554688 19.585938 24.574219 C 19.699219 24.585938 19.785156 24.5625 19.902344 24.488281 C 19.957031 24.453125 20.027344 24.414062 20.058594 24.398438 C 20.089844 24.386719 20.140625 24.355469 20.167969 24.332031 C 20.195312 24.308594 20.238281 24.285156 20.265625 24.277344 C 20.453125 24.238281 20.550781 24.082031 20.574219 23.792969 C 20.578125 23.691406 20.574219 23.648438 20.558594 23.597656 C 20.535156 23.527344 20.523438 23.253906 20.542969 23.15625 L 20.554688 23.109375 L 20.695312 23.121094 C 20.777344 23.128906 20.890625 23.132812 20.953125 23.132812 C 21.058594 23.132812 21.070312 23.132812 21.148438 23.082031 C 21.289062 22.996094 21.371094 22.867188 21.40625 22.695312 L 21.421875 22.601562 L 21.539062 22.535156 C 21.601562 22.496094 21.695312 22.449219 21.75 22.429688 C 21.800781 22.410156 21.894531 22.367188 21.957031 22.339844 C 22.019531 22.308594 22.109375 22.269531 22.15625 22.25 C 22.355469 22.171875 22.496094 21.921875 22.5 21.644531 C 22.5 21.523438 22.460938 21.34375 22.378906 21.078125 C 22.359375 21.023438 22.347656 20.949219 22.347656 20.910156 C 22.347656 20.875 22.328125 20.792969 22.308594 20.734375 C 22.238281 20.542969 22.183594 20.460938 22.074219 20.355469 L 21.964844 20.257812 L 22.03125 20.191406 C 22.066406 20.152344 22.136719 20.058594 22.191406 19.976562 C 22.242188 19.898438 22.292969 19.832031 22.308594 19.824219 C 22.339844 19.8125 22.421875 19.683594 22.445312 19.601562 C 22.460938 19.554688 22.46875 19.464844 22.46875 19.378906 C 22.46875 19.234375 22.449219 19.15625 22.371094 18.972656 C 22.355469 18.941406 22.335938 18.867188 22.324219 18.808594 C 22.292969 18.648438 22.246094 18.554688 22.089844 18.328125 C 22.011719 18.214844 21.929688 18.085938 21.90625 18.042969 C 21.84375 17.941406 21.695312 17.804688 21.585938 17.757812 C 21.539062 17.734375 21.488281 17.710938 21.476562 17.707031 C 21.464844 17.699219 21.410156 17.582031 21.351562 17.445312 L 21.25 17.199219 L 21.3125 17.074219 C 21.371094 16.960938 21.378906 16.941406 21.382812 16.804688 C 21.390625 16.683594 21.386719 16.644531 21.359375 16.570312 C 21.335938 16.507812 21.328125 16.449219 21.328125 16.359375 C 21.328125 16.25 21.320312 16.222656 21.289062 16.167969 C 21.265625 16.128906 21.230469 16.0625 21.203125 16.015625 C 21.167969 15.9375 21.164062 15.925781 21.179688 15.863281 C 21.199219 15.785156 21.179688 15.691406 21.117188 15.609375 C 21.09375 15.578125 21.050781 15.507812 21.023438 15.449219 C 20.988281 15.386719 20.945312 15.328125 20.90625 15.296875 C 20.871094 15.269531 20.808594 15.214844 20.769531 15.183594 C 20.730469 15.152344 20.683594 15.117188 20.664062 15.109375 C 20.644531 15.097656 20.585938 15.054688 20.527344 15.011719 C 20.472656 14.964844 20.378906 14.902344 20.324219 14.867188 C 20.203125 14.796875 20.089844 14.691406 20.074219 14.632812 C 20.070312 14.609375 20.050781 14.558594 20.03125 14.515625 C 20.011719 14.476562 19.992188 14.417969 19.988281 14.390625 C 19.980469 14.324219 19.851562 14.042969 19.792969 13.953125 C 19.746094 13.882812 19.75 13.917969 19.777344 13.574219 C 19.785156 13.496094 19.78125 13.472656 19.742188 13.390625 C 19.71875 13.339844 19.671875 13.273438 19.644531 13.242188 C 19.605469 13.199219 19.589844 13.164062 19.582031 13.113281 C 19.574219 13.074219 19.539062 12.984375 19.503906 12.914062 C 19.4375 12.789062 19.433594 12.785156 19.429688 12.625 C 19.425781 12.496094 19.417969 12.4375 19.386719 12.363281 C 19.363281 12.285156 19.347656 12.21875 19.34375 12.089844 C 19.339844 12 19.328125 11.777344 19.320312 11.601562 C 19.300781 11.199219 19.300781 11.269531 19.3125 10.941406 L 19.324219 10.664062 L 19.25 10.492188 L 19.179688 10.324219 L 19.179688 10.132812 L 19.175781 9.9375 L 19.0625 9.714844 C 18.988281 9.570312 18.9375 9.453125 18.921875 9.386719 C 18.910156 9.332031 18.886719 9.25 18.871094 9.210938 C 18.855469 9.171875 18.839844 9.09375 18.835938 9.039062 C 18.832031 8.96875 18.8125 8.910156 18.773438 8.820312 C 18.609375 8.472656 18.519531 8.285156 18.503906 8.265625 C 18.492188 8.253906 18.480469 8.210938 18.472656 8.167969 C 18.464844 8.128906 18.441406 8.050781 18.421875 8.003906 L 18.375 7.917969 L 18.394531 7.742188 C 18.414062 7.503906 18.414062 7.464844 18.375 7.359375 C 18.359375 7.3125 18.34375 7.253906 18.34375 7.234375 C 18.34375 7.214844 18.335938 7.171875 18.320312 7.136719 C 18.300781 7.09375 18.300781 7.070312 18.3125 7.035156 C 18.324219 7.007812 18.332031 6.972656 18.332031 6.957031 C 18.332031 6.9375 18.355469 6.871094 18.390625 6.808594 C 18.472656 6.640625 18.519531 6.5 18.53125 6.398438 C 18.542969 6.285156 18.632812 5.996094 18.699219 5.84375 C 18.746094 5.734375 18.753906 5.703125 18.765625 5.511719 C 18.777344 5.394531 18.777344 5.273438 18.773438 5.246094 C 18.765625 5.21875 18.757812 5.089844 18.75 4.960938 L 18.742188 4.726562 L 18.675781 4.582031 C 18.5625 4.335938 18.503906 4.292969 18.265625 4.285156 C 18.179688 4.285156 18.046875 4.289062 17.96875 4.300781 Z M 18.195312 5.007812 C 18.195312 5.101562 18.203125 5.214844 18.207031 5.253906 C 18.226562 5.394531 18.207031 5.582031 18.160156 5.679688 C 18.101562 5.800781 18.003906 6.128906 17.984375 6.253906 C 17.96875 6.367188 17.914062 6.515625 17.847656 6.628906 C 17.824219 6.667969 17.800781 6.730469 17.796875 6.769531 C 17.789062 6.804688 17.765625 6.875 17.746094 6.921875 C 17.683594 7.039062 17.6875 7.125 17.75 7.253906 C 17.796875 7.339844 17.839844 7.476562 17.835938 7.511719 C 17.832031 7.550781 17.816406 7.886719 17.816406 7.957031 C 17.816406 8.015625 17.832031 8.0625 17.871094 8.140625 C 17.90625 8.207031 17.925781 8.273438 17.933594 8.328125 C 17.9375 8.410156 17.992188 8.539062 18.035156 8.574219 C 18.0625 8.59375 18.148438 8.761719 18.230469 8.953125 C 18.265625 9.03125 18.285156 9.101562 18.285156 9.144531 C 18.285156 9.179688 18.300781 9.25 18.316406 9.292969 C 18.332031 9.335938 18.363281 9.433594 18.382812 9.507812 C 18.402344 9.597656 18.453125 9.71875 18.519531 9.847656 L 18.621094 10.046875 L 18.617188 10.21875 C 18.613281 10.398438 18.613281 10.40625 18.707031 10.617188 L 18.757812 10.734375 L 18.746094 11.007812 C 18.738281 11.15625 18.738281 11.292969 18.742188 11.316406 C 18.746094 11.335938 18.757812 11.488281 18.765625 11.652344 C 18.796875 12.296875 18.804688 12.375 18.835938 12.445312 C 18.859375 12.492188 18.867188 12.554688 18.871094 12.683594 C 18.882812 12.871094 18.917969 13.007812 18.996094 13.136719 C 19.015625 13.171875 19.035156 13.222656 19.042969 13.25 C 19.058594 13.332031 19.121094 13.46875 19.164062 13.523438 C 19.199219 13.570312 19.203125 13.578125 19.203125 13.804688 C 19.207031 14.054688 19.207031 14.050781 19.335938 14.277344 C 19.375 14.347656 19.453125 14.519531 19.453125 14.539062 C 19.453125 14.546875 19.472656 14.59375 19.492188 14.640625 C 19.511719 14.6875 19.53125 14.765625 19.535156 14.816406 C 19.554688 14.992188 19.632812 15.109375 19.765625 15.164062 C 19.792969 15.175781 19.820312 15.195312 19.824219 15.207031 C 19.828125 15.21875 19.902344 15.269531 19.988281 15.316406 C 20.074219 15.367188 20.175781 15.433594 20.214844 15.46875 C 20.253906 15.503906 20.324219 15.554688 20.367188 15.582031 C 20.519531 15.679688 20.550781 15.714844 20.5625 15.792969 C 20.609375 16.089844 20.609375 16.09375 20.691406 16.25 C 20.753906 16.371094 20.773438 16.421875 20.773438 16.472656 C 20.773438 16.507812 20.785156 16.59375 20.804688 16.664062 L 20.835938 16.789062 L 20.757812 16.945312 C 20.6875 17.082031 20.679688 17.105469 20.679688 17.191406 C 20.675781 17.277344 20.6875 17.3125 20.769531 17.5 C 20.816406 17.617188 20.882812 17.769531 20.910156 17.839844 C 20.933594 17.914062 20.976562 17.996094 21 18.027344 C 21.058594 18.105469 21.1875 18.199219 21.261719 18.214844 C 21.351562 18.238281 21.40625 18.289062 21.488281 18.429688 C 21.527344 18.492188 21.597656 18.601562 21.644531 18.664062 C 21.753906 18.816406 21.757812 18.828125 21.785156 18.953125 C 21.796875 19.015625 21.828125 19.121094 21.855469 19.195312 C 21.9375 19.402344 21.9375 19.398438 21.871094 19.46875 C 21.839844 19.503906 21.785156 19.582031 21.746094 19.640625 C 21.710938 19.703125 21.625 19.808594 21.546875 19.890625 C 21.386719 20.050781 21.363281 20.105469 21.375 20.285156 C 21.386719 20.425781 21.429688 20.503906 21.597656 20.667969 C 21.753906 20.824219 21.789062 20.886719 21.800781 21.03125 C 21.804688 21.078125 21.828125 21.183594 21.851562 21.265625 C 21.957031 21.632812 21.960938 21.667969 21.9375 21.71875 C 21.921875 21.746094 21.90625 21.765625 21.894531 21.765625 C 21.886719 21.765625 21.828125 21.792969 21.761719 21.820312 C 21.699219 21.855469 21.585938 21.90625 21.515625 21.933594 C 21.441406 21.960938 21.335938 22.011719 21.277344 22.046875 C 21.21875 22.082031 21.128906 22.128906 21.082031 22.152344 C 21.03125 22.179688 20.972656 22.222656 20.949219 22.25 C 20.90625 22.304688 20.878906 22.410156 20.878906 22.519531 L 20.878906 22.585938 L 20.8125 22.585938 C 20.773438 22.585938 20.722656 22.574219 20.699219 22.5625 C 20.675781 22.550781 20.609375 22.539062 20.554688 22.53125 C 20.46875 22.527344 20.4375 22.53125 20.367188 22.554688 C 20.238281 22.601562 20.128906 22.675781 20.078125 22.742188 C 20.039062 22.796875 20.03125 22.828125 20.007812 23.019531 C 19.972656 23.304688 19.972656 23.578125 20.003906 23.683594 C 20.027344 23.761719 20.027344 23.765625 20 23.785156 C 19.972656 23.800781 19.972656 23.796875 19.960938 23.703125 C 19.957031 23.613281 19.949219 23.589844 19.910156 23.542969 C 19.84375 23.460938 19.769531 23.429688 19.644531 23.429688 C 19.523438 23.429688 19.5 23.4375 19.253906 23.589844 C 19.167969 23.640625 19.070312 23.691406 19.027344 23.703125 C 18.886719 23.734375 18.796875 23.785156 18.667969 23.910156 C 18.574219 24.003906 18.527344 24.066406 18.457031 24.191406 L 18.367188 24.351562 L 18.253906 24.367188 C 18.195312 24.375 18.125 24.390625 18.101562 24.398438 C 18.074219 24.410156 17.976562 24.417969 17.855469 24.417969 C 17.667969 24.417969 17.648438 24.421875 17.570312 24.457031 C 17.519531 24.480469 17.472656 24.515625 17.4375 24.558594 C 17.390625 24.625 17.339844 24.742188 17.339844 24.800781 C 17.339844 24.839844 17.324219 24.84375 17.269531 24.808594 C 17.222656 24.78125 17.195312 24.777344 17.070312 24.777344 C 16.710938 24.78125 16.554688 24.824219 16.417969 24.945312 C 16.382812 24.976562 16.328125 25.015625 16.292969 25.035156 C 16.230469 25.0625 16.226562 25.0625 16.160156 25.042969 C 16.121094 25.027344 16.074219 25.019531 16.050781 25.019531 C 16.003906 25.019531 15.964844 24.96875 15.925781 24.867188 C 15.867188 24.71875 15.707031 24.601562 15.386719 24.46875 C 15.1875 24.386719 15.039062 24.367188 14.898438 24.40625 C 14.851562 24.421875 14.78125 24.433594 14.742188 24.441406 C 14.5 24.46875 14.390625 24.578125 14.386719 24.777344 C 14.386719 24.886719 14.433594 24.976562 14.539062 25.082031 C 14.621094 25.164062 14.648438 25.203125 14.664062 25.261719 C 14.710938 25.410156 14.707031 25.429688 14.652344 25.523438 C 14.621094 25.574219 14.566406 25.667969 14.53125 25.738281 C 14.496094 25.808594 14.441406 25.898438 14.40625 25.945312 C 14.355469 26.015625 14.3125 26.101562 14.222656 26.34375 C 14.207031 26.386719 14.191406 26.476562 14.1875 26.550781 C 14.179688 26.667969 14.167969 26.695312 14.117188 26.800781 C 14.058594 26.910156 14.046875 26.917969 13.972656 26.953125 C 13.925781 26.972656 13.847656 27.015625 13.800781 27.050781 C 13.695312 27.128906 13.65625 27.144531 13.574219 27.144531 C 13.539062 27.144531 13.476562 27.15625 13.433594 27.167969 C 13.394531 27.179688 13.332031 27.1875 13.292969 27.1875 C 13.148438 27.191406 13.042969 27.277344 12.992188 27.441406 C 12.957031 27.550781 12.882812 27.679688 12.839844 27.707031 C 12.820312 27.71875 12.742188 27.746094 12.664062 27.773438 C 12.515625 27.824219 12.472656 27.84375 12.410156 27.898438 C 12.375 27.933594 12.363281 27.933594 12.28125 27.921875 C 12.234375 27.914062 12.125 27.90625 12.042969 27.90625 C 11.867188 27.90625 11.621094 27.875 11.5625 27.84375 C 11.539062 27.832031 11.5 27.816406 11.480469 27.8125 C 11.433594 27.800781 11.347656 27.691406 11.347656 27.644531 C 11.347656 27.574219 11.277344 27.457031 11.210938 27.414062 C 11.132812 27.363281 10.972656 27.347656 10.878906 27.382812 C 10.808594 27.414062 10.683594 27.40625 10.648438 27.371094 C 10.625 27.351562 10.535156 27.144531 10.535156 27.113281 C 10.535156 27.101562 10.566406 26.992188 10.605469 26.871094 C 10.65625 26.703125 10.675781 26.621094 10.679688 26.507812 C 10.691406 26.3125 10.667969 26.152344 10.609375 26.039062 C 10.566406 25.953125 10.566406 25.941406 10.585938 25.910156 C 10.625 25.847656 10.714844 25.625 10.753906 25.488281 C 10.785156 25.367188 10.796875 25.34375 10.871094 25.269531 C 10.914062 25.222656 10.964844 25.152344 10.984375 25.113281 C 11.058594 24.960938 11.109375 24.820312 11.128906 24.710938 C 11.167969 24.523438 11.179688 24.488281 11.289062 24.304688 C 11.390625 24.140625 11.402344 24.125 11.449219 24.117188 C 11.480469 24.113281 11.535156 24.09375 11.570312 24.078125 C 11.609375 24.0625 11.667969 24.050781 11.71875 24.050781 C 11.835938 24.050781 12.046875 24 12.183594 23.945312 C 12.410156 23.84375 12.441406 23.839844 12.574219 23.855469 C 12.757812 23.882812 12.800781 23.867188 12.964844 23.695312 C 13.207031 23.441406 13.21875 23.410156 13.160156 22.960938 L 13.128906 22.730469 L 13.171875 22.640625 C 13.210938 22.550781 13.210938 22.546875 13.207031 22.265625 L 13.203125 21.980469 L 13.144531 21.796875 C 13.109375 21.695312 13.0625 21.550781 13.039062 21.472656 C 13.007812 21.378906 12.984375 21.269531 12.96875 21.136719 C 12.941406 20.875 12.914062 20.757812 12.839844 20.636719 C 12.828125 20.617188 12.804688 20.570312 12.789062 20.535156 C 12.765625 20.472656 12.6875 20.402344 12.625 20.382812 C 12.574219 20.367188 12.453125 20.203125 12.433594 20.117188 C 12.402344 19.988281 12.363281 19.929688 12.199219 19.773438 C 12.085938 19.667969 12.007812 19.601562 11.941406 19.570312 C 11.796875 19.496094 11.628906 19.324219 11.609375 19.230469 C 11.601562 19.203125 11.582031 19.140625 11.5625 19.097656 C 11.546875 19.054688 11.519531 18.984375 11.503906 18.945312 C 11.457031 18.816406 11.25 18.636719 11.105469 18.597656 C 10.972656 18.5625 10.785156 18.621094 10.660156 18.738281 C 10.597656 18.792969 10.46875 18.863281 10.453125 18.84375 C 10.453125 18.84375 10.441406 18.824219 10.433594 18.808594 C 10.421875 18.789062 10.390625 18.746094 10.363281 18.71875 L 10.3125 18.664062 L 10.347656 18.53125 C 10.367188 18.460938 10.410156 18.347656 10.4375 18.28125 C 10.5 18.144531 10.53125 18.023438 10.542969 17.867188 C 10.546875 17.804688 10.558594 17.730469 10.566406 17.699219 C 10.574219 17.664062 10.582031 17.617188 10.582031 17.59375 C 10.582031 17.53125 10.609375 17.5 10.6875 17.488281 C 10.785156 17.46875 10.878906 17.421875 10.984375 17.328125 C 11.050781 17.269531 11.09375 17.242188 11.152344 17.230469 C 11.199219 17.21875 11.261719 17.191406 11.300781 17.171875 C 11.339844 17.152344 11.394531 17.132812 11.425781 17.128906 C 11.480469 17.117188 11.667969 17.003906 11.796875 16.898438 C 11.835938 16.867188 11.875 16.839844 11.882812 16.839844 C 11.925781 16.839844 12.050781 16.789062 12.132812 16.738281 C 12.183594 16.707031 12.253906 16.667969 12.292969 16.644531 C 12.332031 16.621094 12.386719 16.585938 12.414062 16.5625 C 12.441406 16.539062 12.511719 16.5 12.566406 16.472656 C 12.679688 16.417969 12.875 16.285156 12.964844 16.203125 C 12.992188 16.179688 13.042969 16.148438 13.070312 16.136719 C 13.203125 16.085938 13.265625 16.023438 13.414062 15.800781 C 13.523438 15.625 13.550781 15.574219 13.550781 15.507812 C 13.550781 15.433594 13.507812 15.222656 13.480469 15.148438 C 13.449219 15.074219 13.285156 14.839844 13.214844 14.777344 C 13.171875 14.734375 12.878906 14.539062 12.859375 14.539062 C 12.855469 14.539062 12.824219 14.53125 12.789062 14.527344 C 12.753906 14.519531 12.695312 14.519531 12.660156 14.527344 C 12.625 14.535156 12.535156 14.546875 12.457031 14.550781 L 12.3125 14.566406 L 12.238281 14.5 C 12.128906 14.410156 11.976562 14.351562 11.773438 14.335938 C 11.566406 14.316406 11.535156 14.320312 11.367188 14.40625 L 11.230469 14.46875 L 11.140625 14.382812 C 11.011719 14.257812 10.902344 14.203125 10.726562 14.1875 C 10.464844 14.160156 10.140625 14.195312 10.015625 14.269531 C 9.980469 14.289062 9.929688 14.304688 9.894531 14.304688 C 9.761719 14.304688 9.628906 14.390625 9.511719 14.554688 C 9.386719 14.734375 9.351562 14.777344 9.257812 14.882812 C 9.1875 14.964844 9.148438 15.027344 9.113281 15.109375 C 9.085938 15.175781 9.035156 15.265625 9 15.316406 C 8.921875 15.425781 8.878906 15.554688 8.859375 15.75 C 8.835938 15.960938 8.757812 16.332031 8.707031 16.460938 C 8.644531 16.621094 8.578125 16.695312 8.460938 16.753906 C 8.375 16.792969 8.257812 16.890625 8.222656 16.953125 C 8.1875 17.015625 8.183594 17.109375 8.214844 17.300781 C 8.230469 17.40625 8.242188 17.503906 8.242188 17.515625 C 8.242188 17.527344 8.207031 17.597656 8.167969 17.667969 C 8.125 17.742188 8.070312 17.847656 8.046875 17.910156 C 8.019531 17.980469 7.96875 18.066406 7.917969 18.125 C 7.875 18.179688 7.816406 18.269531 7.785156 18.320312 C 7.753906 18.375 7.679688 18.460938 7.621094 18.519531 C 7.453125 18.683594 7.316406 18.847656 7.257812 18.957031 C 7.230469 19.015625 7.183594 19.089844 7.15625 19.128906 C 7.085938 19.222656 7.050781 19.304688 7.015625 19.480469 C 6.988281 19.617188 6.976562 19.644531 6.898438 19.753906 C 6.851562 19.824219 6.773438 19.914062 6.722656 19.953125 C 6.671875 19.996094 6.570312 20.089844 6.488281 20.164062 C 6.371094 20.277344 6.328125 20.308594 6.214844 20.355469 C 5.984375 20.460938 5.785156 20.578125 5.679688 20.671875 C 5.625 20.722656 5.484375 20.828125 5.363281 20.914062 C 5.136719 21.078125 5.050781 21.152344 4.824219 21.40625 C 4.660156 21.585938 4.566406 21.679688 4.46875 21.75 C 4.40625 21.792969 4.375 21.808594 4.25 21.828125 L 4.101562 21.855469 L 4.046875 21.820312 C 4.019531 21.800781 3.972656 21.769531 3.949219 21.757812 C 3.902344 21.726562 3.796875 21.617188 3.71875 21.507812 C 3.691406 21.46875 3.664062 21.394531 3.632812 21.273438 C 3.585938 21.070312 3.5625 21.015625 3.457031 20.886719 C 3.378906 20.785156 3.332031 20.738281 3.261719 20.695312 L 3.222656 20.671875 L 3.316406 20.601562 C 3.402344 20.542969 3.496094 20.449219 3.71875 20.21875 C 3.753906 20.179688 3.824219 20.117188 3.875 20.078125 C 4.066406 19.9375 4.171875 19.765625 4.214844 19.515625 C 4.246094 19.339844 4.242188 19.3125 4.179688 19.109375 C 4.132812 18.960938 4.066406 18.863281 3.980469 18.820312 C 3.929688 18.792969 3.929688 18.761719 4.015625 18.546875 C 4.09375 18.351562 4.113281 18.3125 4.214844 18.15625 C 4.257812 18.089844 4.320312 17.992188 4.347656 17.941406 C 4.382812 17.875 4.464844 17.777344 4.617188 17.621094 C 4.734375 17.496094 4.855469 17.363281 4.878906 17.324219 C 4.914062 17.269531 4.945312 17.242188 5.011719 17.207031 C 5.0625 17.183594 5.125 17.164062 5.152344 17.164062 C 5.179688 17.164062 5.230469 17.15625 5.269531 17.148438 C 5.394531 17.117188 5.554688 16.941406 5.59375 16.792969 C 5.625 16.660156 5.5625 16.445312 5.457031 16.351562 C 5.414062 16.308594 5.410156 16.300781 5.410156 16.203125 C 5.410156 16.097656 5.414062 16.089844 5.511719 15.90625 C 5.566406 15.804688 5.636719 15.679688 5.671875 15.632812 C 5.765625 15.5 5.882812 15.277344 5.914062 15.175781 C 5.9375 15.09375 5.9375 15.074219 5.914062 14.933594 C 5.875 14.699219 5.835938 14.632812 5.632812 14.425781 C 5.449219 14.246094 5.285156 14.160156 5.058594 14.136719 C 4.953125 14.125 4.898438 14.101562 4.832031 14.035156 C 4.75 13.960938 4.769531 13.859375 4.878906 13.800781 C 4.96875 13.753906 5.15625 13.558594 5.308594 13.351562 C 5.335938 13.316406 5.425781 13.21875 5.507812 13.140625 C 5.71875 12.9375 5.722656 12.921875 5.734375 12.636719 C 5.742188 12.457031 5.738281 12.382812 5.71875 12.296875 C 5.683594 12.136719 5.644531 12.019531 5.585938 11.921875 C 5.539062 11.839844 5.535156 11.828125 5.554688 11.789062 C 5.566406 11.765625 5.59375 11.699219 5.617188 11.644531 C 5.640625 11.585938 5.675781 11.488281 5.695312 11.425781 C 5.738281 11.273438 5.828125 11.035156 5.851562 11.007812 C 5.914062 10.9375 5.976562 10.746094 5.984375 10.59375 C 6 10.4375 6.019531 10.398438 6.101562 10.386719 C 6.136719 10.378906 6.222656 10.347656 6.292969 10.316406 C 6.421875 10.253906 6.507812 10.183594 6.574219 10.082031 C 6.609375 10.03125 6.734375 9.953125 6.773438 9.953125 C 6.785156 9.953125 6.851562 10.003906 6.921875 10.070312 C 7.144531 10.265625 7.261719 10.292969 7.484375 10.191406 C 7.550781 10.160156 7.625 10.125 7.652344 10.105469 C 7.726562 10.058594 8.046875 9.746094 8.121094 9.652344 C 8.15625 9.601562 8.347656 9.40625 8.542969 9.214844 L 8.898438 8.871094 L 9.070312 8.78125 C 9.183594 8.722656 9.28125 8.683594 9.347656 8.667969 C 9.40625 8.65625 9.519531 8.617188 9.601562 8.578125 C 9.730469 8.515625 9.761719 8.492188 9.894531 8.355469 C 9.980469 8.269531 10.097656 8.128906 10.160156 8.03125 C 10.277344 7.867188 10.328125 7.804688 10.328125 7.839844 C 10.328125 7.855469 10.292969 8.0625 10.257812 8.257812 C 10.242188 8.351562 10.214844 8.433594 10.167969 8.523438 C 10.132812 8.59375 10.082031 8.695312 10.058594 8.75 C 10.03125 8.804688 10 8.867188 9.984375 8.898438 C 9.9375 8.980469 9.847656 9.183594 9.847656 9.207031 C 9.847656 9.21875 9.832031 9.273438 9.808594 9.324219 C 9.789062 9.378906 9.769531 9.457031 9.765625 9.5 C 9.761719 9.542969 9.746094 9.632812 9.730469 9.703125 C 9.703125 9.851562 9.710938 10.214844 9.75 10.355469 C 9.78125 10.480469 9.777344 10.632812 9.742188 10.726562 C 9.722656 10.769531 9.707031 10.851562 9.707031 10.910156 C 9.703125 10.96875 9.691406 11.09375 9.683594 11.191406 C 9.675781 11.285156 9.671875 11.386719 9.675781 11.410156 C 9.679688 11.433594 9.683594 11.492188 9.691406 11.535156 C 9.695312 11.582031 9.714844 11.652344 9.734375 11.691406 C 9.777344 11.78125 9.875 11.925781 9.921875 11.96875 C 9.941406 11.984375 9.964844 12.015625 9.976562 12.039062 C 10.011719 12.101562 10.117188 12.207031 10.175781 12.238281 C 10.207031 12.253906 10.292969 12.273438 10.367188 12.28125 C 10.574219 12.304688 10.632812 12.28125 10.777344 12.136719 C 10.894531 12.019531 10.964844 11.902344 11.019531 11.734375 C 11.050781 11.640625 11.105469 11.347656 11.113281 11.242188 C 11.121094 11.15625 11.121094 10.546875 11.117188 10.507812 C 11.109375 10.457031 11.15625 10.171875 11.191406 10.0625 C 11.230469 9.949219 11.296875 9.8125 11.375 9.695312 C 11.511719 9.492188 11.546875 9.296875 11.5 8.925781 L 11.492188 8.84375 L 11.570312 8.8125 C 11.699219 8.765625 11.898438 8.695312 12.042969 8.648438 C 12.296875 8.566406 12.355469 8.542969 12.40625 8.515625 C 12.433594 8.5 12.496094 8.476562 12.546875 8.464844 C 12.71875 8.421875 12.890625 8.292969 12.914062 8.191406 C 12.917969 8.171875 12.957031 8.101562 12.996094 8.03125 C 13.035156 7.960938 13.070312 7.898438 13.070312 7.890625 C 13.070312 7.882812 13.113281 7.863281 13.164062 7.84375 C 13.214844 7.820312 13.285156 7.78125 13.324219 7.746094 C 13.363281 7.710938 13.414062 7.675781 13.4375 7.660156 C 13.460938 7.648438 13.53125 7.605469 13.585938 7.5625 C 13.644531 7.519531 13.734375 7.46875 13.785156 7.445312 C 13.886719 7.398438 14.121094 7.199219 14.203125 7.082031 C 14.230469 7.042969 14.277344 6.996094 14.304688 6.976562 C 14.378906 6.921875 14.429688 6.855469 14.515625 6.699219 C 14.578125 6.589844 14.601562 6.558594 14.660156 6.523438 C 14.695312 6.5 14.753906 6.445312 14.785156 6.402344 C 14.820312 6.359375 14.871094 6.292969 14.90625 6.253906 C 14.941406 6.214844 14.988281 6.15625 15.011719 6.121094 C 15.035156 6.085938 15.078125 6.046875 15.101562 6.03125 C 15.1875 5.996094 15.289062 5.828125 15.382812 5.589844 C 15.410156 5.527344 15.453125 5.445312 15.480469 5.414062 C 15.542969 5.34375 15.574219 5.34375 15.761719 5.40625 C 15.902344 5.457031 16.03125 5.464844 16.109375 5.4375 C 16.128906 5.425781 16.195312 5.414062 16.25 5.410156 C 16.332031 5.398438 16.390625 5.378906 16.535156 5.304688 C 16.640625 5.253906 16.75 5.1875 16.789062 5.148438 C 16.828125 5.113281 16.875 5.082031 16.898438 5.078125 C 16.921875 5.074219 17.003906 5.078125 17.082031 5.085938 C 17.164062 5.097656 17.292969 5.105469 17.371094 5.109375 C 17.511719 5.109375 17.511719 5.109375 17.699219 5.023438 C 17.804688 4.976562 17.910156 4.921875 17.9375 4.898438 C 18.011719 4.84375 18.027344 4.839844 18.117188 4.839844 L 18.195312 4.835938 Z M 18.195312 5.007812 "/>
</g>
</svg>
